<svg xmlns="http://www.w3.org/2000/svg" viewBox="0 0 164.32 65.42"><defs><style>.cls-1{fill:#1d2d65;opacity:0.2;}.cls-2{fill:#c49b2b;}.cls-3{fill:#e6e3e1;}.cls-4{fill:#b7922f;}.cls-5{fill:#1b1e22;}.cls-6{fill:#ecc247;}.cls-11,.cls-7{fill:none;stroke-miterlimit:10;stroke-width:0.5px;}.cls-7{stroke:#231815;}.cls-8{fill:#b23233;}.cls-9{fill:#cd3c3b;}.cls-10{fill:#a92f2e;}.cls-11{stroke:#f3a6a6;opacity:0.6;}</style></defs><g id="レイヤー_2" data-name="レイヤー 2"><g id="レイヤー_1-2" data-name="レイヤー 1"><ellipse class="cls-1" cx="81" cy="57.17" rx="81" ry="8.25"/><path class="cls-2" d="M62.06,18v8.84c-.87.21-1.74.45-2.62.71a70.23,70.23,0,0,0-17.67,8.19c-2.4-4.61-.08-10.22-.08-10.22A60.06,60.06,0,0,1,62.06,18Z"/><path class="cls-3" d="M41.77,35.73a70.23,70.23,0,0,1,17.67-8.19V53.59C35,60.18,6.87,54,10.5,29.57l-.05-.36C30.93,26.1,41.77,35.73,41.77,35.73Z"/><path class="cls-4" d="M41.69,25.51s-2.32,5.61.08,10.22c0,0-10.84-9.63-31.32-6.52A60.47,60.47,0,0,0,3.3,30.73c0-.05-2.22-2.45.74-8.91h0C4.8,21.59,25.91,15.36,41.69,25.51Z"/><path class="cls-5" d="M59.44,27.54c.88-.26,1.75-.5,2.62-.71s1.75-.42,2.61-.6V51.78l.08.16c-1.74.62-3.52,1.17-5.31,1.65Z"/><path class="cls-6" d="M31.24,5.13c.92-.16,23-4,30.82,12.86a60.06,60.06,0,0,0-20.37,7.52C25.91,15.36,4.8,21.59,4.06,21.81A92.28,92.28,0,0,1,31.21,5.14Z"/><path class="cls-5" d="M62.06,18c1.82-.34,3.73-.62,5.73-.81v8.49c-1,.16-2.07.34-3.12.56-.86.18-1.73.37-2.61.6Z"/><path class="cls-6" d="M41.67,1.89C59.84-2.28,82.27.32,103.52,23.82v0a66,66,0,0,0-35.73-6.67v-.3C60.55,1.26,44.56,1.68,41.67,1.89Z"/><path class="cls-2" d="M103.52,23.85v7.72a47.14,47.14,0,0,0-11.08-4.44,59.4,59.4,0,0,0-24.65-1.46V17.18A66,66,0,0,1,103.52,23.85Z"/><path class="cls-5" d="M62.06,18C54.25,1.14,32.16,5,31.24,5.13A74.69,74.69,0,0,1,41.67,1.89c2.89-.21,18.88-.63,26.12,15v.3C65.79,17.37,63.88,17.65,62.06,18Z"/><path class="cls-3" d="M67.79,25.67a59.4,59.4,0,0,1,24.65,1.46C89.27,38.65,78,47.23,64.75,51.94l-.08-.16V26.23C65.72,26,66.76,25.83,67.79,25.67Z"/><path class="cls-7" d="M31.24,5.13A74.69,74.69,0,0,1,41.67,1.89C59.84-2.28,82.27.32,103.52,23.82v7.75a47.14,47.14,0,0,0-11.08-4.44,59.4,59.4,0,0,0-24.65-1.46c-1,.16-2.07.34-3.12.56-.86.18-1.73.37-2.61.6s-1.74.45-2.62.71a70.23,70.23,0,0,0-17.67,8.19S30.93,26.1,10.45,29.21A60.47,60.47,0,0,0,3.3,30.73c0-.05-2.22-2.45.74-8.91"/><path class="cls-7" d="M4.06,21.81A92.28,92.28,0,0,1,31.21,5.14"/><path class="cls-7" d="M4,21.82h0c.74-.22,21.85-6.45,37.63,3.7A60.06,60.06,0,0,1,62.06,18c1.82-.34,3.73-.62,5.73-.81a66,66,0,0,1,35.73,6.67"/><path class="cls-7" d="M41.69,25.51s-2.32,5.61.08,10.22"/><path class="cls-7" d="M10.5,29.57C6.87,54,35,60.18,59.44,53.59c1.79-.48,3.57-1,5.31-1.65C78,47.23,89.27,38.65,92.44,27.13l.15-.56"/><path class="cls-7" d="M31.21,5.14h0c.92-.16,23-4,30.82,12.86v8.84"/><path class="cls-7" d="M41.22,1.93l.45,0c2.89-.21,18.88-.63,26.12,15v8.79"/><line class="cls-7" x1="59.44" y1="27.54" x2="59.44" y2="53.59"/><line class="cls-7" x1="64.67" y1="26.23" x2="64.67" y2="51.78"/><path class="cls-8" d="M153,27.13c-11.24-3.1-29.92-4.62-50.67,8.6-2.4-4.61-.08-10.22-.08-10.22s27.69-18.27,61.83-1.66v7.72A47.14,47.14,0,0,0,153,27.13Z"/><path class="cls-9" d="M164.07,23.82v0c-34.14-16.61-61.83,1.66-61.83,1.66-15.78-10.15-36.89-3.92-37.63-3.7C65.67,20.81,117.67-27.49,164.07,23.82Z"/><path class="cls-3" d="M102.32,35.73C123.07,22.51,141.75,24,153,27.13c-9.29,33.68-87.86,42.22-81.94,2.44l0-.36C91.48,26.1,102.32,35.73,102.32,35.73Z"/><path class="cls-10" d="M102.24,25.51s-2.32,5.61.08,10.22c0,0-10.84-9.63-31.32-6.52a62.55,62.55,0,0,0-7.15,1.52c0-.05-2.22-2.45.74-8.91h0C65.35,21.59,86.46,15.36,102.24,25.51Z"/><path class="cls-7" d="M64.61,21.81c1.06-1,53.06-49.3,99.46,2v7.75A47.14,47.14,0,0,0,153,27.13c-11.24-3.1-29.92-4.62-50.67,8.6,0,0-10.84-9.63-31.32-6.52a62.55,62.55,0,0,0-7.15,1.52c0-.05-2.22-2.45.74-8.91"/><path class="cls-7" d="M64.59,21.82h0c.74-.22,21.85-6.45,37.63,3.7,0,0,27.69-18.27,61.83-1.66"/><path class="cls-7" d="M102.24,25.51s-2.32,5.61.08,10.22"/><path class="cls-7" d="M71.05,29.57C65.13,69.35,143.7,60.81,153,27.13l.15-.56"/><path class="cls-11" d="M81,11s13.1-4.51,33.33,8.11"/><path class="cls-11" d="M94.92,4.87s15.15-6.42,35.44,11.52"/><path class="cls-11" d="M114.33,1.13S134.76,0,145.46,16.88"/></g></g></svg>