<?xml version="1.0" encoding="utf-8"?>
<!-- Generator: Adobe Illustrator 24.2.1, SVG Export Plug-In . SVG Version: 6.00 Build 0)  -->
<svg version="1.1" id="レイヤー_1" xmlns="http://www.w3.org/2000/svg" xmlns:xlink="http://www.w3.org/1999/xlink" x="0px"
	 y="0px" viewBox="0 0 158.8 51.3" style="enable-background:new 0 0 158.8 51.3;" xml:space="preserve">
<style type="text/css">
	.st0{enable-background:new    ;}
	.st1{fill:#231815;}
</style>
<g id="レイヤー_2-2">
	<g id="レイヤー_1-2-2">
		<g class="st0">
			<path class="st1" d="M13,42.8c0.7-0.2,0.7-0.2,0.7-2.2V35c0-1.9,0-2-0.5-2.1c-0.2,0-0.3-0.2-0.4-0.6h4.4c0.9,0,1.9,0,2.4-0.1
				c0.1,0,0.2,0,0.2,0.2l0.1,2.1c0,0.2-0.2,0.3-0.3,0.1c-0.4-1.1-0.6-1.5-1.9-1.5h-2.5v4.3h0.7c2,0,2.1-0.4,2.3-0.8
				c0.1-0.1,0.2-0.1,0.2,0.1c-0.1,0.5,0,1.6,0,2.2c0,0.1-0.1,0.2-0.2,0.1c-0.5-0.7-1.1-1-2.5-1h-0.6v2c0,2.7,0,2.7,1.3,2.7
				c-0.1,0.4-0.2,0.5-0.4,0.5h-3.4C12.8,43,12.8,42.9,13,42.8z"/>
			<path class="st1" d="M20.5,36.7c0.7-0.2,1.4-0.5,2.1-0.7c0.2,0,0.2,0,0.2,0.2c0,0.7-0.1,1.2-0.1,2.7v1.8c0,2.2,0,2.2,0.9,2.3
				c-0.1,0.3-0.1,0.4-0.3,0.4h-2.9c0.1-0.3,0.1-0.4,0.3-0.4c0.7-0.1,0.7-0.2,0.7-1.8v-3.6c0-0.3-0.1-0.6-0.5-0.6h-0.2
				C20.3,36.9,20.3,36.8,20.5,36.7z M20.9,33.8c0-0.5,0.4-0.9,0.9-0.9c0.5,0,0.9,0.4,0.9,0.9s-0.4,0.9-0.9,0.9
				C21.3,34.8,20.9,34.4,20.9,33.8z"/>
			<path class="st1" d="M24.6,42.9c0.5-0.1,0.6-0.2,0.6-1.8v-3.6c0-0.2-0.1-0.4-0.5-0.4h-0.2c-0.2,0-0.3-0.1,0-0.2
				c0.7-0.3,1.4-0.6,2-0.8c0.1,0,0.2,0,0.2,0.1c0,0.2,0,1,0,1.4c0.8-1,1.3-1.5,2.1-1.5c1.5,0,2.4,1,2.4,2.7v1.8c0,2.2,0,2.2,0.8,2.3
				c-0.1,0.3-0.1,0.4-0.3,0.4h-2.7c0.1-0.3,0.1-0.4,0.3-0.4c0.5-0.1,0.6-0.2,0.6-1.6v-1.3c0-1.2-0.1-2.9-1.3-2.9
				c-0.8,0-1.2,0.3-1.8,0.9v2.7c0,2.2,0,2.2,0.8,2.3c-0.1,0.3-0.1,0.4-0.3,0.4h-2.7C24.4,43,24.4,42.9,24.6,42.9z"/>
			<path class="st1" d="M34.2,39.6c0,1.7,0.9,3,2.3,3c0.9,0,1.4-0.3,1.9-0.7c0.2-0.1,0.3,0,0.2,0.2c-0.3,0.6-1.1,1.5-2.6,1.5
				c-1.9,0-3.3-1.3-3.3-3.7c0-1.8,1.5-3.7,3.1-3.7c1.3,0,1.8,0.4,2.2,0.8c0.5,0.4,0.7,1.2,0.8,2.1c0,0.4,0,0.5-0.4,0.5
				C36.7,39.5,35.3,39.5,34.2,39.6z M37.3,38.8c0-1.2-0.5-2.2-1.4-2.2c-1.1,0-1.7,1.1-1.7,2.4L37.3,38.8z"/>
			<path class="st1" d="M50.4,33.8c0,0.5-0.2,0.8-0.6,0.8c-0.3,0-0.4,0-0.7-0.1c0-0.5,0-0.9-0.3-1.2c-0.4-0.4-0.9-0.5-1.3-0.1
				c-0.4,0.3-0.5,1-0.5,2.1v0.9h2c-0.1,0.6-0.1,0.8-0.5,0.8h-1.4v4.1c0,1.7,0,1.8,1.1,1.8c-0.1,0.3-0.1,0.4-0.3,0.4h-3.1
				c0.1-0.3,0.1-0.4,0.3-0.4c0.5-0.1,0.6-0.2,0.6-1.5V37h-1.2l0.1-0.4c0-0.1,0.1-0.2,0.2-0.2l1-0.2v-0.5c0-0.7,0.2-1.4,0.5-1.9
				c0.5-1,1.4-1.6,2.5-1.6C49.7,32.2,50.4,33.2,50.4,33.8z"/>
			<path class="st1" d="M49.7,39.7c0-2,1.5-3.7,3.6-3.7c2.1,0,3.4,1.6,3.4,3.7c0,2-1.5,3.7-3.5,3.7C50.9,43.4,49.7,41.7,49.7,39.7z
				 M55.2,39.9c0-1.7-0.8-3.3-2.1-3.3c-1.4,0-1.8,1.2-1.8,2.9c0,1.6,0.8,3.3,2,3.3C54.7,42.8,55.2,41.8,55.2,39.9z"/>
			<path class="st1" d="M57.7,39.7c0-2,1.5-3.7,3.6-3.7c2.1,0,3.4,1.6,3.4,3.7c0,2-1.5,3.7-3.5,3.7C58.8,43.4,57.7,41.7,57.7,39.7z
				 M63.1,39.9c0-1.7-0.8-3.3-2.1-3.3c-1.4,0-1.8,1.2-1.8,2.9c0,1.6,0.8,3.3,2,3.3C62.7,42.8,63.1,41.8,63.1,39.9z"/>
			<path class="st1" d="M69.2,36.1c0.6,0,1.1,0.2,1.5,0.4v-2.7c0-0.3-0.1-0.6-0.5-0.6H70c-0.2,0-0.2-0.1,0-0.2
				c0.7-0.3,1.4-0.5,2.1-0.7c0.2,0,0.2,0,0.2,0.2c-0.1,0.7-0.1,2.9-0.1,4.4v4.1c0,1.9,0,2.2,0.8,2c0.2,0,0.2,0.1,0.1,0.2
				c-0.3,0.2-0.7,0.4-1.1,0.4c-0.5,0-1.2,0-1.2-1.2c-0.3,0.6-1,1.2-2.2,1.2c-1.7,0-2.9-1.4-2.9-3.5C65.7,37.9,67.2,36.1,69.2,36.1z
				 M69.3,42.5c0.5,0,1.1-0.3,1.4-0.7v-4.5c-0.3-0.4-0.8-0.8-1.5-0.8c-1.7,0-2,1.6-2,3.1C67.2,41.3,67.9,42.5,69.3,42.5z"/>
			<path class="st1" d="M78.3,32.9c0.7-0.3,1.4-0.5,2-0.7c0.2,0,0.2,0,0.2,0.2c-0.1,0.7-0.1,2.9-0.1,4.4v0.8c0.3-0.6,1-1.4,2.2-1.4
				c1.7,0,2.9,1.5,2.9,3.4c0,2.3-1.5,4-4,4c-1.1,0-1.8-0.2-2.6-0.1c-0.1,0-0.2,0-0.1-0.2c0.3-0.7,0.3-2.5,0.3-3.8v-5.6
				c0-0.4-0.1-0.6-0.5-0.6h-0.2C78.2,33.1,78.1,32.9,78.3,32.9z M81.8,42.8c1.7,0,2.3-1.3,2.3-3.2c0-1.3-0.8-2.7-1.9-2.7
				c-1,0-1.2,0.4-1.7,0.9v4.7C80.9,42.7,81.3,42.8,81.8,42.8z"/>
			<path class="st1" d="M88.1,39.6c0,1.7,0.9,3,2.3,3c0.9,0,1.4-0.3,1.9-0.7c0.2-0.1,0.3,0,0.2,0.2c-0.3,0.6-1.1,1.5-2.6,1.5
				c-1.9,0-3.3-1.3-3.3-3.7c0-1.8,1.5-3.7,3.1-3.7c1.3,0,1.8,0.4,2.2,0.8c0.5,0.4,0.7,1.2,0.8,2.1c0,0.4,0,0.5-0.4,0.5
				C90.6,39.5,89.2,39.5,88.1,39.6z M91.3,38.8c0-1.2-0.5-2.2-1.4-2.2c-1.1,0-1.7,1.1-1.7,2.4L91.3,38.8z"/>
			<path class="st1" d="M98.4,42.7c-0.3,0.3-0.9,0.8-1.8,0.8c-1.1,0-1.7-0.6-1.7-2.1V37h-1.2l0-0.2c0-0.1,0.1-0.2,0.2-0.2
				c1.2-0.2,1.5-1.2,1.8-2.2c0-0.1,0.5-0.1,0.5,0v1.8h2.2C98.4,36.7,98.3,37,98,37h-1.7v4c0,1.5,0.5,1.8,1.1,1.8
				c0.3,0,0.6-0.1,0.9-0.2C98.4,42.4,98.5,42.6,98.4,42.7z"/>
			<path class="st1" d="M103.6,42.7c-0.3,0.3-0.9,0.8-1.8,0.8c-1.1,0-1.7-0.6-1.7-2.1V37h-1.2l0-0.2c0-0.1,0.1-0.2,0.2-0.2
				c1.2-0.2,1.5-1.2,1.8-2.2c0-0.1,0.5-0.1,0.5,0v1.8h2.2c-0.1,0.5-0.1,0.8-0.5,0.8h-1.7v4c0,1.5,0.5,1.8,1.1,1.8
				c0.3,0,0.6-0.1,0.9-0.2C103.7,42.4,103.8,42.6,103.6,42.7z"/>
			<path class="st1" d="M105.9,39.6c0,1.7,0.9,3,2.3,3c0.9,0,1.4-0.3,1.9-0.7c0.2-0.1,0.3,0,0.2,0.2c-0.3,0.6-1.1,1.5-2.6,1.5
				c-1.9,0-3.3-1.3-3.3-3.7c0-1.8,1.5-3.7,3.1-3.7c1.3,0,1.8,0.4,2.2,0.8c0.5,0.4,0.7,1.2,0.8,2.1c0,0.4,0,0.5-0.4,0.5
				C108.3,39.5,106.9,39.5,105.9,39.6z M109,38.8c0-1.2-0.5-2.2-1.4-2.2c-1.1,0-1.7,1.1-1.7,2.4L109,38.8z"/>
			<path class="st1" d="M111.8,42.9c0.5-0.1,0.5-0.2,0.5-1.8v-3.6c0-0.2-0.1-0.4-0.5-0.4h-0.2c-0.2,0-0.3-0.1,0-0.2
				c0.7-0.3,1.4-0.6,2-0.8c0.1,0,0.2,0,0.2,0.1c0,0.2,0,1.1,0,1.5c0.5-0.9,1-1.6,1.8-1.6c0.6,0,1.1,0.3,1.3,0.7
				c0.2,0.3,0.1,0.8-0.6,1.2c-0.4-0.4-0.8-0.7-1.1-0.7c-0.5,0-0.8,0.2-1.3,0.8v2.6c0,2.2,0,2.2,0.9,2.3c-0.1,0.3-0.1,0.4-0.3,0.4
				h-2.7C111.6,43,111.6,42.9,111.8,42.9z"/>
			<path class="st1" d="M126.7,42.7c-0.3,0.3-0.9,0.8-1.8,0.8c-1.1,0-1.7-0.6-1.7-2.1V37H122l0-0.2c0-0.1,0.1-0.2,0.2-0.2
				c1.2-0.2,1.5-1.2,1.8-2.2c0-0.1,0.5-0.1,0.5,0v1.8h2.2c-0.1,0.5-0.1,0.8-0.5,0.8h-1.7v4c0,1.5,0.5,1.8,1.1,1.8
				c0.3,0,0.6-0.1,0.9-0.2C126.7,42.4,126.8,42.6,126.7,42.7z"/>
			<path class="st1" d="M134.8,42.9c-0.1,0.3-0.1,0.4-0.3,0.4h-2.8c0.1-0.3,0.1-0.4,0.3-0.4c0.7-0.1,0.7-0.2,0.7-1.6v-1.4
				c0-1.2,0.1-2.8-1.3-2.8c-0.8,0-1.2,0.3-1.9,0.8v2.7c0,2.2,0,2.2,0.8,2.3c-0.1,0.3-0.1,0.4-0.3,0.4h-2.7c0.1-0.3,0.1-0.4,0.3-0.4
				c0.5-0.1,0.6-0.2,0.6-1.8v-7.4c0-0.3-0.1-0.5-0.5-0.5h-0.2c-0.2,0-0.2-0.1,0-0.2c0.7-0.3,1.4-0.5,2.1-0.7c0.2,0,0.2,0,0.2,0.1
				c0,0.7-0.1,3-0.1,4.4v0.8c0.4-0.7,1.2-1.4,2.3-1.4c1.5,0,2.3,0.9,2.3,2.6v1.9C134,42.8,134,42.8,134.8,42.9z"/>
			<path class="st1" d="M137.1,39.6c0,1.7,0.9,3,2.3,3c0.9,0,1.4-0.3,1.9-0.7c0.2-0.1,0.3,0,0.2,0.2c-0.3,0.6-1.1,1.5-2.6,1.5
				c-1.9,0-3.3-1.3-3.3-3.7c0-1.8,1.5-3.7,3.1-3.7c1.3,0,1.8,0.4,2.2,0.8c0.5,0.4,0.7,1.2,0.8,2.1c0,0.4,0,0.5-0.4,0.5
				C139.6,39.5,138.2,39.5,137.1,39.6z M140.2,38.8c0-1.2-0.5-2.2-1.4-2.2c-1.1,0-1.7,1.1-1.7,2.4L140.2,38.8z"/>
			<path class="st1" d="M142.9,42.9c0.6-0.1,0.6-0.2,0.6-1.8v-3.6c0-0.2-0.1-0.4-0.5-0.4h-0.2c-0.2,0-0.3-0.1,0-0.2
				c0.7-0.3,1.4-0.6,2-0.8c0.1,0,0.2,0,0.2,0.1c0,0.2,0,1,0,1.5c0.4-0.7,1.1-1.5,1.9-1.5c1.1,0,1.9,0.5,2.2,1.5
				c0.5-0.7,1.1-1.5,2-1.5c1.5,0,2.3,1,2.3,2.7v1.9c0,2.2,0,2.2,0.8,2.3c-0.1,0.3-0.1,0.4-0.3,0.4H151c0.1-0.3,0.1-0.4,0.3-0.4
				c0.5-0.1,0.6-0.2,0.6-1.6v-1.3c0-1.2,0-2.8-1.2-2.8c-0.8,0-0.9,0.2-1.6,0.9v0.8v1.9c0,2.2,0,2.2,0.7,2.3
				c-0.1,0.3-0.1,0.4-0.3,0.4h-2.6c0.1-0.3,0-0.4,0.2-0.4c0.5-0.1,0.6-0.2,0.6-1.6v-1.3c0-1.2,0.1-2.8-1.1-2.8
				c-0.5,0-0.9,0.3-1.6,0.9v2.7c0,2.2,0,2.2,0.7,2.3c-0.1,0.3-0.1,0.4-0.3,0.4h-2.7C142.7,43,142.7,42.9,142.9,42.9z"/>
			<path class="st1" d="M155.3,42.4c0-0.6,0.5-1.1,1.1-1.1c0.6,0,1.1,0.5,1.1,1.1c0,0.6-0.5,1-1.1,1
				C155.8,43.4,155.3,42.9,155.3,42.4z"/>
		</g>
	</g>
</g>
<g id="レイヤー_2-3">
	<g id="レイヤー_1-2-3">
		<g class="st0">
			<path class="st1" d="M2.9,17.7c-0.2,0-0.2-0.1-0.1-0.2c0.3-0.2,0.5-0.5,0.5-2.2V9.5c0-1.7,0-1.9-0.3-2C2.8,7.3,2.7,7.2,2.7,6.8
				C3.2,6.9,3.6,6.9,4,6.9C5,7,5.8,6.8,6.9,6.8c3.5,0,5.5,2.2,5.5,5.7c0,3.2-1.9,5.3-5.7,5.3c-0.7,0-1.4-0.1-2.3-0.1
				C3.9,17.6,3.5,17.6,2.9,17.7z M6.7,7.5c-0.9,0-1.4,0.1-1.8,0.2v9.1C5.5,17,6.3,17,7.1,17c2.6-0.2,3.6-1.7,3.6-4.4
				C10.7,8.9,9.2,7.5,6.7,7.5z"/>
			<path class="st1" d="M15.2,14c0,1.7,0.9,3,2.3,3c0.9,0,1.4-0.3,1.9-0.7c0.2-0.1,0.3,0,0.2,0.2c-0.3,0.6-1.1,1.5-2.6,1.5
				c-1.9,0-3.3-1.3-3.3-3.7c0-1.8,1.5-3.7,3.1-3.7c1.3,0,1.8,0.4,2.2,0.8c0.5,0.4,0.7,1.2,0.8,2.1c0,0.4,0,0.5-0.4,0.5
				C17.6,14,16.2,13.9,15.2,14z M18.3,13.2c0-1.2-0.5-2.2-1.4-2.2c-1.1,0-1.7,1.1-1.7,2.4L18.3,13.2z"/>
			<path class="st1" d="M25.5,17.3c-0.5,0.4-1.2,0.6-2,0.6c-1,0-1.7-0.2-2.4-0.8C21,17,21,17,21,16.8c0-0.2,0.2-0.9,0.3-1.4
				c0-0.2,0.2-0.1,0.2,0c0.1,0.8,0.3,1.2,0.8,1.5c0.7,0.5,1.6,0.5,2.2,0.1c0.5-0.3,0.5-1,0.2-1.4c-0.2-0.4-0.9-0.7-1.4-0.9
				c-1.5-0.6-2.2-1-2.2-2.3c0-0.7,0.5-1.4,1.3-1.7c0.4-0.2,0.8-0.3,1.3-0.3c0.8,0,1.4,0.3,1.8,0.2c0.1,0,0.2-0.1,0.2,0.1
				c0,0.4,0.1,1.3,0.1,1.8c0,0.1-0.1,0.2-0.2,0c-0.1-0.3-0.3-0.7-0.9-1.2c-0.5-0.4-1.4-0.5-2-0.1c-0.3,0.2-0.3,0.4-0.3,0.7
				c0,0.7,0.6,1.1,1.8,1.6c0.9,0.4,1.6,0.7,1.9,1.2C26.5,15.6,26.3,16.6,25.5,17.3z"/>
			<path class="st1" d="M27.3,11.1c0.7-0.2,1.4-0.5,2.1-0.7c0.2,0,0.2,0,0.2,0.2c0,0.7-0.1,1.2-0.1,2.7V15c0,2.2,0,2.2,0.9,2.3
				c-0.1,0.3-0.1,0.4-0.3,0.4h-2.9c0.1-0.3,0.1-0.4,0.3-0.4c0.7-0.1,0.7-0.2,0.7-1.8v-3.6c0-0.3-0.1-0.6-0.5-0.6h-0.2
				C27.2,11.3,27.1,11.2,27.3,11.1z M27.8,8.3c0-0.5,0.4-0.9,0.9-0.9c0.5,0,0.9,0.4,0.9,0.9c0,0.5-0.4,0.9-0.9,0.9
				C28.2,9.2,27.8,8.8,27.8,8.3z"/>
			<path class="st1" d="M37.9,18.8c0,1-0.8,1.9-2,2.4C34,22,31,21.7,31,19.8c0-1,0.9-1.7,1.7-2c-0.4-0.1-1.1-0.3-1.1-1
				c0-0.6,0.7-1.4,1.1-1.7c-1.2-0.6-1.4-1.2-1.4-2.2c0-1.1,0.9-2.5,2.8-2.5c0.8,0,1.1,0.2,1.2,0.2c0.5-0.5,1.1-1,1.8-0.9
				c0.5,0.1,0.9,0.4,0.9,0.7c0.1,0.3-0.1,0.5-0.4,0.8c-0.5-0.4-1.2-0.9-2-0.5c1.1,0.7,1.3,1.5,1.3,2.1c0,1.2-0.8,2.5-2.8,2.5
				c-0.4,0-0.9-0.1-1.1-0.2c-0.1,0.2-0.4,0.5-0.4,0.9c0,0.4,0.7,0.5,0.9,0.5l1.6,0.1C36.6,16.8,37.9,17.4,37.9,18.8z M32.4,19.6
				c0,1.4,2.1,1.5,3.1,1.1c0.6-0.3,1-0.9,1-1.6c0-0.6-0.7-1-1.5-1l-1.9-0.2C32.4,18.5,32.4,19.3,32.4,19.6z M32.8,12.9
				c0,1.3,0.7,1.9,1.4,1.9c1.5,0,1.4-1.6,1.4-2c0-1.2-0.7-1.9-1.4-1.9C32.9,11,32.8,12.2,32.8,12.9z"/>
			<path class="st1" d="M38.6,17.3c0.5-0.1,0.6-0.2,0.6-1.8v-3.6c0-0.2-0.1-0.4-0.5-0.4h-0.2c-0.2,0-0.3-0.1,0-0.2
				c0.7-0.3,1.4-0.6,2-0.8c0.1,0,0.2,0,0.2,0.1c0,0.2,0,1,0,1.4c0.8-1,1.3-1.5,2.1-1.5c1.5,0,2.4,1,2.4,2.7V15c0,2.2,0,2.2,0.8,2.3
				c-0.1,0.3-0.1,0.4-0.3,0.4h-2.7c0.1-0.3,0.1-0.4,0.3-0.4c0.5-0.1,0.6-0.2,0.6-1.6v-1.3c0-1.2-0.1-2.9-1.3-2.9
				c-0.8,0-1.2,0.3-1.8,0.9V15c0,2.2,0,2.2,0.8,2.3c-0.1,0.3-0.1,0.4-0.3,0.4h-2.7C38.4,17.4,38.4,17.3,38.6,17.3z"/>
			<path class="st1" d="M51.1,7.3c0.7-0.3,1.4-0.5,2.1-0.7c0.2,0,0.2,0,0.2,0.2c-0.1,0.7-0.1,2.9-0.1,4.4v0.8c0.3-0.6,1-1.4,2.2-1.4
				c1.7,0,2.9,1.5,2.9,3.4c0,2.3-1.5,4-4,4c-1.1,0-1.8-0.2-2.6-0.1c-0.1,0-0.2,0-0.1-0.2c0.3-0.7,0.3-2.5,0.3-3.8V8.1
				c0-0.4-0.1-0.6-0.5-0.6h-0.2C50.9,7.5,50.9,7.4,51.1,7.3z M54.5,17.2c1.7,0,2.3-1.3,2.3-3.2c0-1.3-0.8-2.7-1.9-2.7
				c-1,0-1.2,0.4-1.7,0.9V17C53.7,17.2,54,17.2,54.5,17.2z"/>
			<path class="st1" d="M59.3,11c0.7-0.1,1.4-0.3,2-0.5c0.2,0,0.2,0,0.2,0.2c-0.1,0.7-0.1,2.7-0.1,3.8c0,1.7,0.3,2.5,1.7,2.3
				c0.5-0.1,1-0.3,1.4-0.6v-4.4c0-0.3-0.1-0.5-0.5-0.5h-0.2c-0.2,0-0.2-0.2,0-0.2c0.7-0.1,1.4-0.3,2-0.5c0.2,0,0.2,0,0.2,0.2
				c-0.1,0.7-0.1,3.7-0.1,5.8c0,0.7,0.1,0.8,0.8,0.8c0.2,0,0.2,0.1,0.1,0.2c-0.2,0.2-0.7,0.4-1,0.4c-0.5,0-1.2-0.1-1.2-1.3
				c-0.3,0.6-1.2,1.3-2.3,1.3c-1.5,0-2.1-0.9-2.1-3.1v-3c0-0.3-0.1-0.5-0.5-0.5h-0.2C59.1,11.3,59,11.1,59.3,11z"/>
			<path class="st1" d="M67.7,11.1c0.7-0.2,1.4-0.5,2.1-0.7c0.2,0,0.2,0,0.2,0.2c0,0.7-0.1,1.2-0.1,2.7V15c0,2.2,0,2.2,0.9,2.3
				c-0.1,0.3-0.1,0.4-0.3,0.4h-2.9c0.1-0.3,0.1-0.4,0.3-0.4c0.7-0.1,0.7-0.2,0.7-1.8v-3.6c0-0.3-0.1-0.6-0.5-0.6h-0.2
				C67.6,11.3,67.5,11.2,67.7,11.1z M68.1,8.3c0-0.5,0.4-0.9,0.9-0.9c0.5,0,0.9,0.4,0.9,0.9c0,0.5-0.4,0.9-0.9,0.9
				C68.6,9.2,68.1,8.8,68.1,8.3z"/>
			<path class="st1" d="M71.8,7.3c0.7-0.3,1.4-0.5,2.1-0.7c0.2,0,0.2,0,0.2,0.1c-0.1,0.7-0.1,2.9-0.1,4.4V15c0,2.2,0,2.2,0.9,2.3
				c-0.1,0.3-0.1,0.4-0.3,0.4h-2.9c0.1-0.3,0.1-0.4,0.3-0.4c0.5-0.1,0.6-0.2,0.6-1.8V8.1c0-0.3-0.1-0.6-0.5-0.6h-0.2
				C71.6,7.5,71.6,7.4,71.8,7.3z"/>
			<path class="st1" d="M79.4,10.5c0.6,0,1.1,0.2,1.5,0.4V8.1c0-0.3-0.1-0.6-0.5-0.6h-0.2c-0.2,0-0.2-0.1,0-0.2
				c0.7-0.3,1.4-0.5,2.1-0.7c0.2,0,0.2,0,0.2,0.2c-0.1,0.7-0.1,2.9-0.1,4.4v4.1c0,1.9,0,2.2,0.8,2c0.2,0,0.2,0.1,0.1,0.2
				c-0.3,0.2-0.7,0.4-1.1,0.4c-0.5,0-1.2,0-1.2-1.2c-0.3,0.6-1,1.2-2.2,1.2c-1.7,0-2.9-1.4-2.9-3.5C75.9,12.3,77.3,10.5,79.4,10.5z
				 M79.5,17c0.5,0,1.1-0.3,1.4-0.7v-4.5c-0.3-0.4-0.8-0.8-1.5-0.8c-1.7,0-2,1.6-2,3.1C77.4,15.8,78.1,17,79.5,17z"/>
			<path class="st1" d="M88.8,14.2c0-2,1.5-3.7,3.6-3.7c2.1,0,3.4,1.6,3.4,3.7c0,2-1.5,3.7-3.5,3.7C90,17.9,88.8,16.1,88.8,14.2z
				 M94.3,14.4c0-1.7-0.8-3.3-2.1-3.3c-1.4,0-1.8,1.2-1.8,2.9c0,1.6,0.8,3.3,2,3.3C93.8,17.3,94.3,16.2,94.3,14.4z"/>
			<path class="st1" d="M96.7,11c0.7-0.1,1.4-0.3,2-0.5c0.2,0,0.2,0,0.2,0.2c-0.1,0.7-0.1,2.7-0.1,3.8c0,1.7,0.3,2.5,1.7,2.3
				c0.5-0.1,1-0.3,1.4-0.6v-4.4c0-0.3-0.1-0.5-0.5-0.5h-0.2c-0.2,0-0.2-0.2,0-0.2c0.7-0.1,1.4-0.3,2-0.5c0.2,0,0.2,0,0.2,0.2
				c-0.1,0.7-0.1,3.7-0.1,5.8c0,0.7,0.1,0.8,0.8,0.8c0.2,0,0.2,0.1,0.1,0.2c-0.2,0.2-0.7,0.4-1,0.4c-0.5,0-1.2-0.1-1.2-1.3
				c-0.3,0.6-1.2,1.3-2.3,1.3c-1.5,0-2.1-0.9-2.1-3.1v-3c0-0.3-0.1-0.5-0.5-0.5h-0.2C96.5,11.3,96.5,11.1,96.7,11z"/>
			<path class="st1" d="M105.3,17.3c0.5-0.1,0.5-0.2,0.5-1.8v-3.6c0-0.2-0.1-0.4-0.5-0.4h-0.2c-0.2,0-0.3-0.1,0-0.2
				c0.7-0.3,1.4-0.6,2-0.8c0.1,0,0.2,0,0.2,0.1c0,0.2,0,1.1,0,1.5c0.5-0.9,1-1.6,1.8-1.6c0.6,0,1.1,0.3,1.3,0.7
				c0.2,0.3,0.1,0.8-0.6,1.2c-0.4-0.4-0.8-0.7-1.1-0.7c-0.5,0-0.8,0.2-1.3,0.8V15c0,2.2,0,2.2,0.9,2.3c-0.1,0.3-0.1,0.4-0.3,0.4H105
				C105.1,17.4,105.1,17.3,105.3,17.3z"/>
			<path class="st1" d="M115.8,7.3c0.7-0.3,1.4-0.5,2.1-0.7c0.2,0,0.2,0,0.2,0.1c-0.1,0.7-0.1,2.9-0.1,4.4V15c0,2.2,0,2.2,0.9,2.3
				c-0.1,0.3-0.1,0.4-0.3,0.4h-2.9c0.1-0.3,0.1-0.4,0.3-0.4c0.5-0.1,0.6-0.2,0.6-1.8V8.1c0-0.3-0.1-0.6-0.5-0.6h-0.2
				C115.6,7.5,115.6,7.4,115.8,7.3z"/>
			<path class="st1" d="M120,11.1c0.7-0.2,1.4-0.5,2.1-0.7c0.2,0,0.2,0,0.2,0.2c0,0.7-0.1,1.2-0.1,2.7V15c0,2.2,0,2.2,0.9,2.3
				c-0.1,0.3-0.1,0.4-0.3,0.4h-2.9c0.1-0.3,0.1-0.4,0.3-0.4c0.7-0.1,0.7-0.2,0.7-1.8v-3.6c0-0.3-0.1-0.6-0.5-0.6H120
				C119.8,11.3,119.8,11.2,120,11.1z M120.4,8.3c0-0.5,0.4-0.9,0.9-0.9c0.5,0,0.9,0.4,0.9,0.9c0,0.5-0.4,0.9-0.9,0.9
				C120.8,9.2,120.4,8.8,120.4,8.3z"/>
			<path class="st1" d="M129.8,8.2c0,0.5-0.2,0.8-0.6,0.8c-0.3,0-0.4,0-0.7-0.1c0-0.5,0-0.9-0.3-1.2c-0.4-0.4-0.9-0.5-1.3-0.1
				c-0.4,0.3-0.5,1-0.5,2.1v0.9h2c-0.1,0.6-0.1,0.8-0.5,0.8h-1.4v4.1c0,1.7,0,1.8,1.1,1.8c-0.1,0.3-0.1,0.4-0.3,0.4h-3.1
				c0.1-0.3,0.1-0.4,0.3-0.4c0.5-0.1,0.6-0.2,0.6-1.5v-4.4h-1.2l0.1-0.4c0-0.1,0.1-0.2,0.2-0.2l1-0.2v-0.5c0-0.7,0.2-1.4,0.5-1.9
				c0.5-1,1.4-1.6,2.5-1.6C129,6.6,129.8,7.6,129.8,8.2z"/>
			<path class="st1" d="M130.5,14c0,1.7,0.9,3,2.3,3c0.9,0,1.4-0.3,1.9-0.7c0.2-0.1,0.3,0,0.2,0.2c-0.3,0.6-1.1,1.5-2.6,1.5
				c-1.9,0-3.3-1.3-3.3-3.7c0-1.8,1.5-3.7,3.1-3.7c1.3,0,1.8,0.4,2.2,0.8c0.5,0.4,0.7,1.2,0.8,2.1c0,0.4,0,0.5-0.4,0.5
				C133,14,131.6,13.9,130.5,14z M133.7,13.2c0-1.2-0.5-2.2-1.4-2.2c-1.1,0-1.7,1.1-1.7,2.4L133.7,13.2z"/>
			<path class="st1" d="M136.8,16.8c0-0.6,0.5-1.1,1.1-1.1c0.6,0,1.1,0.5,1.1,1.1c0,0.6-0.5,1-1.1,1
				C137.3,17.9,136.8,17.4,136.8,16.8z"/>
		</g>
	</g>
</g>
</svg>
