<?xml version="1.0" encoding="utf-8"?>
<!-- Generator: Adobe Illustrator 24.2.1, SVG Export Plug-In . SVG Version: 6.00 Build 0)  -->
<svg version="1.1" id="レイヤー_1" xmlns="http://www.w3.org/2000/svg" xmlns:xlink="http://www.w3.org/1999/xlink" x="0px"
	 y="0px" viewBox="0 0 180.1 51.3" style="enable-background:new 0 0 180.1 51.3;" xml:space="preserve">
<style type="text/css">
	.st0{enable-background:new    ;}
	.st1{fill:#231815;}
</style>
<g id="レイヤー_2-2">
	<g id="レイヤー_1-2-2">
		<g class="st0">
			<path class="st1" d="M34.3,44.8c-0.3,1-0.9,1.8-1.7,2.4c-1.3,1.1-3.2,1.8-5.7,2c-0.1,0-0.1-0.1-0.1-0.2c0-0.1,0-0.1,0-0.1
				c2-0.4,3.4-1.2,4.5-2.3c0.6-0.6,1-1.3,1.3-2.1h-4.1c-0.4,0-0.8,0-1.4,0.1l0-0.6c0.5,0.1,1,0.1,1.5,0.1h4.2
				c0.1-0.5,0.2-1.1,0.2-1.5v-0.1c1.1,0.2,1.7,0.3,1.9,0.3s0.2,0.1,0.2,0.2c0,0.2-0.2,0.3-0.6,0.4c0,0.3-0.1,0.5-0.1,0.7h4.4
				c0.6-0.7,0.9-1,1-1s0.5,0.2,1.1,0.7c0.3,0.2,0.4,0.4,0.4,0.5s-0.1,0.2-0.2,0.2h-6.7c0.8,1,1.8,1.8,3.1,2.2
				c1.1,0.4,2.5,0.6,4.1,0.6c0,0,0.1,0,0.1,0.1s0,0.1-0.1,0.1c-0.3,0.1-0.6,0.3-0.7,0.6c-0.2,0.2-0.3,0.5-0.4,0.9
				c0,0.1-0.1,0.2-0.2,0.2c-0.1,0-0.4-0.1-0.8-0.2c-1-0.3-1.9-0.7-2.8-1.3C35.8,47.1,34.9,46.1,34.3,44.8z M33.3,41.8v-2.1h-3.2
				c-0.3,0-0.7,0-1.1,0.1l-0.2-0.6c0.5,0.1,0.9,0.1,1.3,0.1h3.3v-1.9h-4.1c-0.3,0-0.7,0-1.2,0.1L27.8,37c0.5,0.1,0.9,0.1,1.3,0.1
				h6.1c0.3-0.5,0.5-1,0.8-1.6c0.2-0.4,0.3-0.8,0.4-1.1c1.3,0.5,1.9,0.9,1.9,1.1c0,0.1-0.1,0.2-0.2,0.2c-0.1,0-0.3,0.1-0.6,0.1
				c-0.6,0.6-1.1,1-1.7,1.4h2.6c0.6-0.6,0.9-0.9,1-0.9s0.4,0.2,1,0.6c0.3,0.2,0.4,0.4,0.4,0.5s-0.1,0.2-0.2,0.2h-5.9v1.9h2.6
				c0.5-0.6,0.9-0.9,1-0.9s0.4,0.2,1,0.7c0.3,0.2,0.4,0.4,0.4,0.5S39.6,40,39.5,40h-4.8v2.1h4.1c0.6-0.6,0.9-1,1-1s0.5,0.2,1,0.7
				c0.3,0.2,0.4,0.4,0.4,0.5s-0.1,0.2-0.2,0.2H28.6c-0.4,0-0.8,0-1.3,0.1L27.1,42c0.5,0.1,1,0.1,1.5,0.1h4.7V41.8z M32.9,36.2
				c0,0.5-0.3,0.8-0.9,0.8c-0.2,0-0.3,0-0.4-0.1s-0.2-0.2-0.2-0.5c-0.2-0.7-0.5-1.2-0.9-1.7c0,0,0,0,0-0.1c0-0.1,0-0.1,0.1-0.1l0,0
				c0.8,0.1,1.4,0.3,1.8,0.7C32.8,35.5,32.9,35.8,32.9,36.2z"/>
			<path class="st1" d="M52.2,46.3c0.2,0.1,0.4,0.2,0.6,0.3c1.2,0.6,2.7,0.9,4.5,1c0,0,0.1,0,0.1,0.1c0,0,0,0.1-0.1,0.1
				c-0.3,0.1-0.6,0.2-0.7,0.4c-0.1,0.2-0.2,0.4-0.3,0.7s-0.2,0.4-0.4,0.4c-0.1,0-0.3,0-0.7-0.1c-0.8-0.3-1.6-0.6-2.3-1
				c-0.9-0.5-1.5-1.1-2.1-1.7c-0.5-0.6-0.9-1.4-1.4-2.4h-2.2v3.4c1.1-0.2,2.2-0.4,3.4-0.8c0.1,0,0.1,0,0.1,0.1v0.1
				c-1.5,0.9-3.3,1.7-5.5,2.4c-0.1,0.3-0.2,0.4-0.4,0.4c-0.1,0-0.2-0.1-0.3-0.4c-0.1-0.3-0.3-0.7-0.5-1.4c0.5,0,1.1-0.1,1.8-0.1
				v-4.2c0-1.2,0-2.5,0-3.7c-0.9,0.5-1.8,0.9-2.9,1.3l0,0c-0.1,0-0.1-0.1-0.1-0.2c0,0,0,0,0-0.1c2.2-1.3,3.9-2.7,5.1-4.3
				c0.6-0.8,1-1.5,1.2-2.2c0.9,0.3,1.6,0.5,1.8,0.6c0.2,0.1,0.3,0.2,0.3,0.3c0,0.2-0.2,0.3-0.7,0.3c0.8,0.9,1.7,1.7,2.9,2.3
				c1.3,0.7,2.8,1.2,4.6,1.4c0,0,0.1,0,0.1,0.1s0,0.1-0.1,0.1c-0.3,0-0.5,0.1-0.6,0.3s-0.3,0.4-0.4,0.8c-0.1,0.2-0.2,0.4-0.3,0.4
				s-0.4-0.1-0.7-0.2c-0.4-0.2-1-0.5-1.6-0.9c0,0.1-0.2,0.1-0.3,0.2v0.5l0.1,3.1c0,0.1,0,0.1,0,0.1c0.1-0.2,0.2-0.3,0.3-0.4
				c0.7,0.4,1.2,0.7,1.3,0.9c0.1,0.1,0.2,0.2,0.2,0.3s-0.1,0.2-0.4,0.2c-0.1,0-0.2,0-0.3,0C54.1,45.5,53.1,46,52.2,46.3z M46.7,39.1
				c0.1,0.1,0.3,0.1,0.6,0.3h1.8v-0.7c0-0.4,0-0.7-0.1-1.2c1.3,0.1,2,0.3,2,0.5c0,0.1-0.2,0.3-0.5,0.4v1h2c0.1-0.1,0.2-0.2,0.5-0.4
				c-1.1-0.8-2-1.9-2.7-3.2C49.2,37.1,48,38.2,46.7,39.1z M52.6,41.4v-1.7h-5.4v1.7H52.6z M52.6,43.6v-1.8h-5.4v1.8H52.6z M51.9,46
				c0.7-0.6,1.3-1.1,1.7-1.5c0.1-0.1,0.1-0.2,0.3-0.3c-0.1,0.1-0.3,0.1-0.5,0.1c-0.4,0-0.6-0.1-0.7-0.3h-2.9
				C50.3,44.8,51,45.5,51.9,46z"/>
			<path class="st1" d="M66.8,38.4L66.8,38.4c-2,0.5-3.6,1-4.7,1.4c-0.3,0.1-0.5,0.2-0.6,0.4c-0.1,0.1-0.3,0.2-0.5,0.2
				c-0.3,0-0.7-0.2-1.2-0.8c-0.4-0.5-0.6-0.9-0.6-1.2s0.1-0.5,0.2-0.5c0.1,0,0.2,0.1,0.3,0.2c0.3,0.3,0.5,0.5,0.6,0.5
				c0.1,0.1,0.3,0.1,0.5,0.1h0.1c0.5,0,1.3-0.2,2.7-0.5c1.7-0.4,3.4-0.8,4.9-1.3c0.3-0.1,0.6-0.2,0.9-0.3c0.2-0.1,0.4-0.1,0.6-0.1
				c0.6,0,1.1,0.1,1.5,0.3c0.3,0.2,0.5,0.4,0.5,0.6c0,0.4-0.2,0.6-0.6,0.6c-0.1,0-0.3,0-0.6,0c-0.3,0-0.6,0-0.9,0.1
				c-1.5,0.1-2.7,0.7-3.7,1.7c-0.8,0.9-1.2,1.9-1.2,3.1c0,1.1,0.4,1.9,1.2,2.4c0.7,0.5,1.6,0.8,2.6,0.8c0.6,0,1,0.1,1.2,0.2
				c0.4,0.2,0.6,0.5,0.6,0.8c0,0.5-0.3,0.8-1,0.8c-1,0-2.1-0.3-3.1-0.8c-0.7-0.3-1.2-0.8-1.7-1.5C64.2,45,64,44.3,64,43.5
				c0-1,0.2-1.9,0.6-2.7S65.8,39.2,66.8,38.4z M69.9,40c0.5,0.1,1,0.3,1.3,0.6c0.4,0.3,0.6,0.6,0.6,1c0,0.2,0,0.3-0.1,0.4
				c-0.1,0.1-0.2,0.2-0.4,0.2c-0.2,0-0.4-0.1-0.5-0.4c-0.3-0.6-0.6-1-1-1.4c-0.1-0.1-0.2-0.2-0.2-0.2s0-0.1,0.1-0.1L69.9,40L69.9,40
				z M71.2,39c0.6,0.1,1.1,0.2,1.5,0.5s0.6,0.5,0.6,0.8c0,0.2-0.1,0.3-0.2,0.5c-0.1,0.1-0.2,0.1-0.3,0.1c-0.3,0-0.5-0.1-0.6-0.4
				c-0.3-0.5-0.7-0.9-1.1-1.3C71,39.1,70.9,39,70.9,39c0-0.1,0-0.1,0-0.1H71C71.1,39,71.1,39,71.2,39z"/>
			<path class="st1" d="M82.5,39.2V43h2.4c0.6-0.8,1-1.2,1.1-1.2s0.5,0.3,1.1,0.8c0.3,0.3,0.5,0.5,0.5,0.6s-0.1,0.2-0.2,0.2h-4.8
				v4.5H86c0.7-0.8,1.1-1.2,1.2-1.2s0.5,0.3,1.2,0.8c0.3,0.3,0.5,0.5,0.5,0.6s-0.1,0.2-0.2,0.2H76.4c-0.4,0-0.9,0-1.5,0.1l-0.2-0.6
				c0.6,0.1,1.2,0.1,1.7,0.1H81v-4.5h-2.8c-0.4,0-0.8,0-1.4,0.1l-0.2-0.6c0.5,0.1,1,0.1,1.4,0.1h3v-3.8h-2.9
				c-0.8,1.5-1.9,2.7-3.1,3.5l0,0c-0.1,0-0.1,0-0.1-0.1l0,0c1-1.2,1.8-2.9,2.4-4.9c0.2-0.6,0.3-1.3,0.4-1.9c1.4,0.4,2.1,0.6,2.1,0.9
				c0,0.2-0.2,0.3-0.6,0.4c-0.2,0.7-0.5,1.3-0.7,1.8H81v-2c0-0.9,0-1.7-0.1-2.3c1,0.1,1.6,0.2,1.9,0.3c0.2,0.1,0.3,0.2,0.3,0.3
				c0,0.2-0.2,0.3-0.6,0.4v3.2h2.8c0.6-0.8,1-1.2,1.1-1.2s0.5,0.3,1.1,0.8c0.3,0.3,0.5,0.5,0.5,0.6s-0.1,0.2-0.2,0.2L82.5,39.2
				L82.5,39.2z"/>
			<path class="st1" d="M93.1,40.2c0,0.3-0.1,0.5-0.3,0.7c-0.1,0.1-0.3,0.2-0.5,0.2s-0.4-0.1-0.5-0.2c-0.1-0.1-0.2-0.4-0.4-0.7
				c-0.2-0.5-0.6-1-1.1-1.4l0,0c0-0.1,0-0.1,0.1-0.1C92.2,38.7,93.1,39.3,93.1,40.2z M94.8,38.8L93,44.5c-0.2,0.6-0.2,0.9-0.2,1.1
				c0,0.3,0.1,0.6,0.3,1.1c0.2,0.5,0.4,1,0.4,1.3c0,0.4-0.1,0.6-0.3,0.9c-0.2,0.2-0.4,0.3-0.7,0.3c-0.5,0-0.8-0.3-0.8-0.8
				c0-0.2,0-0.4,0.1-0.8c0-0.3,0.1-0.6,0.1-0.8c0-0.5-0.1-0.9-0.2-1.1c-0.1-0.2-0.5-0.3-1-0.5v-0.1c0-0.1,0-0.1,0.1-0.1
				c0.4,0.1,0.6,0.1,0.7,0.1c0.3,0,0.5-0.1,0.7-0.4c0.4-0.6,1.3-2.4,2.7-5.7c0,0,0,0,0.1,0C94.7,38.7,94.8,38.7,94.8,38.8L94.8,38.8
				z M94.3,36.6c0,0.3-0.1,0.5-0.3,0.7c-0.1,0.1-0.3,0.2-0.5,0.2s-0.4-0.1-0.5-0.2c-0.1-0.1-0.2-0.4-0.4-0.7c-0.3-0.5-0.6-1-1.1-1.5
				l0,0c0-0.1,0-0.1,0.1-0.1c0.9,0.1,1.6,0.3,2.1,0.6C94.1,35.8,94.3,36.2,94.3,36.6z M98.8,43.5v-3.3H96c-0.3,0-0.7,0-1.1,0.1
				l-0.2-0.6c0.5,0.1,0.9,0.1,1.3,0.1h2.8v-2.9c-1.3,0.2-2.5,0.3-3.7,0.3c0,0-0.1,0-0.1-0.1s0-0.1,0.1-0.1c1.8-0.3,3.7-0.8,5.6-1.6
				c0.8-0.4,1.4-0.7,1.8-1c0.9,0.7,1.4,1.2,1.4,1.3s-0.1,0.2-0.4,0.2c-0.1,0-0.2,0-0.4,0c-0.9,0.3-1.8,0.6-2.8,0.8v3.2h2.2
				c0.6-0.7,1-1.1,1.1-1.1s0.5,0.3,1.1,0.8c0.3,0.3,0.5,0.5,0.5,0.5c0,0.1-0.1,0.2-0.2,0.2h-4.7v3.3h1.8c0.4-0.5,0.7-0.8,0.8-0.8
				c0.1,0,0.4,0.2,0.9,0.6c0.2,0.2,0.4,0.4,0.4,0.5s-0.2,0.3-0.5,0.5V45l0.1,3.4c0,0.4-0.3,0.6-0.9,0.6c-0.4,0-0.6-0.2-0.6-0.5V48
				H97v0.5c0,0.4-0.3,0.6-0.9,0.6c-0.4,0-0.6-0.2-0.6-0.5l0.1-3.3c0-1.1,0-2-0.1-2.7c0.6,0.2,1.1,0.5,1.7,0.8h1.6V43.5z M102.2,47.7
				v-3.8H97v3.8H102.2z"/>
			<path class="st1" d="M115.8,39.3c0-0.2,0.2-0.2,0.6-0.2c0.3,0,0.8,0.1,1.3,0.4c0.6,0.3,0.9,0.7,0.9,1.1c0,0.3-0.2,0.5-0.6,0.5
				c-0.2,0-0.5,0.1-0.9,0.2c-0.8,0.3-1.6,0.6-2.4,1c-0.9,0.5-1.4,0.7-1.5,0.8c0,0.3,0,0.7,0,1.2v0.9c0,0.3,0,0.4-0.1,0.5
				c-0.1,0.3-0.3,0.4-0.6,0.4c-0.5,0-0.7-0.3-0.7-0.8c0-0.1,0-0.3,0-0.6s0-0.6,0-0.9c-0.2,0.1-0.5,0.3-0.8,0.5
				c-0.5,0.3-0.8,0.6-1,0.9c-0.2,0.3-0.3,0.6-0.3,0.9c0,0.8,0.7,1.1,2.2,1.1c1,0,1.7,0,2.2-0.1c0.3,0,0.6-0.1,0.9-0.3
				c0.2-0.1,0.4-0.1,0.7-0.1c0.4,0,0.7,0.1,0.9,0.3c0.2,0.2,0.3,0.4,0.3,0.6c0,0.2-0.1,0.4-0.3,0.5c-0.4,0.3-1.4,0.4-3.1,0.4
				c-1,0-1.8,0-2.3-0.1c-0.4-0.1-0.8-0.2-1.2-0.4c-0.7-0.3-1.1-0.9-1.1-1.8c0-0.7,0.4-1.4,1.1-2.1c0.4-0.4,1-0.8,1.8-1.3
				c0-0.2,0-0.4,0-0.8c0-0.9-0.3-1.4-0.8-1.4c-0.6,0-1.2,0.4-1.8,1.1c-0.1,0.1-0.4,0.6-1.1,1.6c-0.2,0.3-0.5,0.5-0.7,0.5
				s-0.4-0.1-0.5-0.2c-0.1-0.1-0.2-0.3-0.2-0.5c0-0.3,0.1-0.5,0.3-0.7c0.2-0.2,0.4-0.4,0.6-0.5c0.8-0.8,1.6-1.9,2.3-3.2
				c-0.5,0-0.9,0.1-1.2,0.1c-0.1,0-0.1,0-0.2,0c-0.4,0-0.8-0.1-1.1-0.4c-0.3-0.2-0.5-0.5-0.7-0.9c-0.1-0.1-0.1-0.3-0.1-0.4
				c0-0.1,0-0.1,0.1-0.1s0.1,0,0.2,0.1c0.3,0.4,0.8,0.7,1.6,0.7c0.5,0,1.1-0.1,1.9-0.3c0.2-0.4,0.4-0.8,0.5-1.3
				c0.1-0.2,0.1-0.4,0.1-0.4c0-0.1,0-0.2-0.1-0.3c-0.1-0.1-0.2-0.1-0.4-0.2c-0.1-0.1-0.2-0.1-0.3-0.1c-0.1,0-0.1,0-0.1-0.1
				c0-0.1,0-0.1,0.1-0.2c0.1-0.1,0.3-0.2,0.6-0.2c0.6,0,1.1,0.1,1.6,0.4c0.3,0.1,0.4,0.3,0.4,0.6c0,0.2-0.1,0.3-0.2,0.4
				c-0.2,0.1-0.3,0.3-0.4,0.5c-0.2,0.2-0.3,0.5-0.5,0.7c0.5-0.1,0.9-0.3,1.3-0.6c0.2-0.1,0.3-0.2,0.6-0.2c0.3,0,0.6,0.1,0.8,0.2
				c0.2,0.1,0.3,0.2,0.3,0.4c0,0.3-0.1,0.5-0.4,0.6c-0.9,0.3-1.9,0.6-3.1,0.8c-0.3,0.5-0.5,0.8-0.6,0.9c-0.3,0.4-0.5,0.9-0.8,1.3
				c0.7-0.5,1.3-0.7,1.8-0.7c0.6,0,1.1,0.2,1.4,0.6c0.2,0.3,0.3,0.7,0.3,1.4c1.4-0.9,2.3-1.4,2.7-1.7c0.4-0.3,0.6-0.4,0.6-0.5
				s-0.1-0.2-0.2-0.3s-0.3-0.2-0.5-0.2C115.9,39.4,115.8,39.3,115.8,39.3z"/>
			<path class="st1" d="M128,44.4c0,0.5,0,1.4,0.1,2.7c0,0.8,0,1.3,0,1.5c0,0.4-0.3,0.6-0.9,0.6c-0.4,0-0.6-0.2-0.6-0.5
				c0-0.1,0-0.5,0-1.5c0-0.8,0-1.5,0-2c-1.7,1.6-3.8,2.7-6.4,3.4c-0.1,0-0.1,0-0.1-0.1c0,0,0,0,0-0.1c2.4-1.2,4.2-2.6,5.5-4.2h-3.8
				c-0.3,0-0.7,0-1.1,0.1l-0.2-0.6c0.4,0.1,0.9,0.1,1.2,0.1h4.9v-0.4c0-0.5,0-1-0.1-1.4c0.8,0.1,1.4,0.1,1.6,0.2
				c0.2,0.1,0.3,0.1,0.3,0.3c0,0.1-0.2,0.3-0.5,0.4v1h3.8c0.6-0.7,1-1.1,1.2-1.1c0.1,0,0.5,0.3,1.1,0.8c0.3,0.3,0.5,0.5,0.5,0.5
				c0,0.1-0.1,0.2-0.2,0.2h-6.1c0.8,0.8,1.7,1.4,2.8,1.8c1.1,0.5,2.5,0.8,4.1,0.9c0,0,0.1,0,0.1,0.1c0,0,0,0.1-0.1,0.1
				c-0.4,0.2-0.6,0.3-0.7,0.5c-0.1,0.1-0.2,0.4-0.4,0.8c0,0.1-0.1,0.2-0.2,0.2c-0.1,0-0.3-0.1-0.7-0.2c-0.8-0.3-1.4-0.6-2-1
				s-1.1-0.8-1.6-1.3C129,45.7,128.5,45.1,128,44.4z M124.6,39.7c-0.8,0.8-1.8,1.7-3,2.5c0,0.4-0.1,0.6-0.3,0.6
				c-0.1,0-0.4-0.6-0.9-1.8c0.4-0.1,0.8-0.2,1.2-0.3c0.9-0.3,1.9-0.6,2.9-1.1l0,0C124.6,39.6,124.6,39.6,124.6,39.7L124.6,39.7z
				 M124,37.8c0,0.3-0.1,0.5-0.3,0.7c-0.2,0.2-0.3,0.2-0.5,0.2s-0.3-0.1-0.4-0.2c-0.1-0.1-0.2-0.4-0.4-0.8c-0.3-0.6-0.8-1.2-1.5-1.8
				c0,0,0,0,0-0.1c0-0.1,0-0.1,0.1-0.1C122.9,36.2,124,36.9,124,37.8z M126.1,41.6v0.3c0,0.4-0.3,0.6-0.8,0.6
				c-0.4,0-0.6-0.1-0.6-0.4l0.1-3.7c0-0.9,0-1.7-0.1-2.4c0.6,0.3,1.1,0.5,1.5,0.7h0.5c0.1-0.3,0.1-0.7,0.2-1.2c0-0.2,0-0.5,0-0.9
				c0.9,0.2,1.4,0.3,1.7,0.4c0.2,0.1,0.3,0.2,0.3,0.3c0,0.1-0.2,0.3-0.5,0.3c-0.3,0.4-0.7,0.8-1,1.1h1.6c0.4-0.4,0.6-0.6,0.7-0.6
				s0.4,0.2,0.8,0.5c0.2,0.2,0.3,0.4,0.3,0.5s-0.1,0.2-0.4,0.4v0.7v3.7c0,0.3-0.3,0.5-0.8,0.5c-0.4,0-0.6-0.1-0.6-0.4v-0.3
				L126.1,41.6L126.1,41.6z M128.9,38.9V37h-2.8v1.9H128.9z M128.9,41.2v-2h-2.8v2H128.9z M134.5,36.6c0,0.1-0.1,0.2-0.4,0.2
				c-0.1,0-0.2,0-0.2,0c-0.9,0.8-2,1.5-3.2,2l0,0c-0.1,0-0.1,0-0.1-0.1l0,0c0.6-0.6,1.1-1.2,1.6-2c0.3-0.5,0.6-0.9,0.8-1.4
				C134,36,134.5,36.5,134.5,36.6z M134.3,41.4c0,0.3-0.1,0.5-0.3,0.6c-0.1,0.1-0.3,0.2-0.5,0.2s-0.4-0.1-0.5-0.2
				c-0.2-0.1-0.3-0.4-0.5-0.7c-0.5-0.8-1.1-1.3-1.9-1.8l0,0c0-0.1,0-0.1,0.1-0.1C133.1,39.7,134.3,40.4,134.3,41.4z"/>
			<path class="st1" d="M140,37.8c-0.1,0.2-0.2,0.3-0.2,0.3c-0.1,0.2-0.2,1.2-0.3,2.8c-0.1,1.7-0.2,3.1-0.2,4.2
				c0,0.8,0.1,1.3,0.4,1.5c0.3,0.2,0.8,0.4,1.5,0.4c1.1,0,2.2-0.3,3.5-1c1.1-0.6,2.1-1.3,2.8-2.2c0.1-0.1,0.2-0.2,0.3-0.2
				s0.2,0.1,0.2,0.2c0,0.1-0.1,0.2-0.2,0.4c-0.7,1.1-1.6,2.1-2.8,2.9c-0.7,0.4-1.3,0.8-1.9,0.9c-0.7,0.2-1.5,0.4-2.4,0.4
				s-1.6-0.3-2-0.9c-0.4-0.5-0.6-1.2-0.6-2.1v-0.1c0-1,0.1-2.4,0.1-4.2c0.1-1.6,0.1-2.8,0.1-3.5c0-0.3,0-0.6-0.1-0.7
				c-0.1-0.1-0.3-0.3-0.5-0.4c-0.3-0.1-0.5-0.2-0.5-0.3s0.1-0.2,0.3-0.3s0.5-0.1,0.7-0.1c0.5,0,1,0.2,1.5,0.7
				c0.3,0.3,0.5,0.5,0.5,0.8C140.2,37.4,140.1,37.5,140,37.8z"/>
			<path class="st1" d="M159,45.5c-0.3-3-0.4-4.6-0.4-4.8c0-1.1,0.5-1.6,1.4-1.7c0.8,0,1.5,0.3,2.2,1c0.4,0.5,0.6,1,0.6,1.6
				c0,0.3-0.1,0.5-0.2,0.7c-0.1,0.1-0.3,0.2-0.5,0.2c-0.3,0-0.5-0.1-0.7-0.3S161,42,160.7,42h-0.1H160c-0.2,0-0.2,0-0.2-0.1
				s0.1-0.1,0.4-0.2c0.2-0.1,0.5-0.2,0.8-0.4c0.2-0.1,0.3-0.2,0.3-0.4c0-0.4-0.2-0.7-0.5-1s-0.7-0.5-1-0.5c-0.2,0-0.4,0.1-0.5,0.3
				s-0.1,0.4-0.1,0.6c0,0.6,0.1,1.4,0.3,2.2c0.2,1,0.5,1.8,0.9,2.5c0.2,0.3,0.4,0.6,0.3,1.1c0,0.6-0.3,1-0.9,1.4
				c-0.9,0.5-2.2,0.8-3.9,0.8c-1.4,0-2.4-0.2-3-0.6c-0.6-0.3-0.9-0.9-0.9-1.5c0-0.5,0.2-1.1,0.5-1.7c-0.6-0.1-1-0.2-1.3-0.5
				s-0.5-0.8-0.5-1.3s0.2-0.9,0.5-1.3c0.3-0.3,0.7-0.5,1.1-0.5c0.5,0,0.8,0.1,1,0.4c0-0.7,0-1.1,0-1.3s0-0.4,0-0.6
				c-0.8,0.1-1.4,0.2-1.9,0.2c-0.7,0-1.2-0.3-1.6-0.9c-0.1-0.2-0.2-0.3-0.2-0.4c0-0.1,0-0.1,0.1-0.1l0,0c0,0,0.1,0,0.2,0.1
				c0.1,0.1,0.2,0.1,0.3,0.2c0.3,0.2,0.6,0.3,1,0.3c0.6,0,1.3-0.1,2.1-0.3v-1.7c0-0.5-0.2-0.8-0.5-0.8c-0.2,0-0.4,0-0.4,0
				c-0.1,0-0.2-0.1-0.2-0.1c0-0.1,0.1-0.2,0.2-0.3c0.2-0.2,0.5-0.3,0.8-0.3c0.4,0,0.8,0.1,1.2,0.3s0.5,0.4,0.5,0.6
				c0,0.1-0.1,0.3-0.3,0.6c-0.1,0.2-0.2,0.7-0.3,1.5c0.6-0.2,1.1-0.4,1.3-0.6c0.1-0.1,0.3-0.2,0.6-0.2s0.5,0,0.8,0.1
				s0.4,0.3,0.4,0.5s-0.1,0.3-0.2,0.4c-0.1,0.1-0.3,0.1-0.5,0.2c-0.6,0.2-1.4,0.5-2.4,0.7l-0.1,2.7c0,0.4,0,0.6,0,0.7
				c0,1-0.4,1.6-1.1,1.9c-0.3,0.5-0.5,1-0.5,1.5s0.2,0.8,0.6,1c0.4,0.2,1.1,0.3,2.1,0.3c0.7,0,1.4-0.1,1.9-0.2
				c0.3-0.1,0.6-0.2,1-0.4c0.5-0.2,0.7-0.6,0.7-1L159,45.5L159,45.5z M152.4,41.5c-0.3,0-0.6,0.1-0.8,0.3s-0.3,0.5-0.3,0.9
				s0.1,0.6,0.3,0.8s0.4,0.2,0.7,0.2s0.5-0.1,0.7-0.4c0.1-0.2,0.2-0.5,0.2-0.8c0-0.4-0.1-0.7-0.3-0.8
				C152.8,41.6,152.6,41.5,152.4,41.5z"/>
		</g>
	</g>
</g>
<g id="レイヤー_2-3">
	<g id="レイヤー_1-2-3">
		<g class="st0">
			<path d="M12.5,8.2C13.9,8.1,15,8,16,7.9c1.7-0.1,2.7-0.2,3-0.3c0.2,0,0.4-0.1,0.6-0.2c0.2-0.1,0.4-0.1,0.6-0.1
				c0.5,0,1,0.1,1.5,0.4c0.2,0.1,0.4,0.3,0.4,0.6S22,8.8,21.7,8.8c-0.1,0-0.1,0-0.2,0c-0.2,0-0.4,0-0.8-0.1c-0.6-0.1-1.3-0.1-2-0.1
				c-1,0-1.7,0-2.2,0c0.5,0.3,0.7,0.6,0.7,0.9c0,0.1,0,0.2-0.1,0.3s-0.2,0.4-0.3,0.7c-0.4,1.1-1,2.2-1.8,3.2c-0.9,1.2-2,2.1-3.3,2.7
				c-0.1,0.1-0.2,0.1-0.3,0.1s-0.2-0.1-0.2-0.2s0.1-0.2,0.4-0.4c0.9-0.9,1.7-1.9,2.4-3c0.5-0.8,0.9-1.7,1.2-2.8
				c0.1-0.4,0.1-0.7,0.1-0.9s-0.1-0.4-0.2-0.5C14,8.9,13,9,12.3,9.2c-0.3,0.1-0.6,0.2-0.8,0.3c-0.1,0.1-0.3,0.1-0.5,0.1
				c-0.3,0-0.6-0.2-1.1-0.7C9.6,8.6,9.5,8.3,9.5,8c0-0.3,0.1-0.4,0.2-0.4c0,0,0.1,0.1,0.2,0.2c0.4,0.3,0.8,0.5,1.1,0.5
				C11.4,8.3,11.8,8.3,12.5,8.2z M15.1,4.7c0.8-0.1,1.4-0.2,1.8-0.3c0.1,0,0.2-0.1,0.5-0.2S17.9,4,18,4c0.5,0,1,0.1,1.4,0.3
				c0.2,0.1,0.3,0.3,0.3,0.5c0,0.4-0.2,0.5-0.6,0.6c-0.8,0-1.2,0.1-1.3,0.1c-2.3,0.2-3.5,0.3-3.6,0.3c-0.4,0-0.7,0.1-0.8,0.1
				c-0.3,0-0.5,0-0.7-0.1s-0.4-0.2-0.6-0.5c-0.2-0.3-0.4-0.6-0.4-0.8c0-0.2,0-0.2,0.1-0.2c0,0,0.1,0,0.2,0.1
				c0.2,0.2,0.4,0.3,0.6,0.4c0.2,0.1,0.4,0.1,0.7,0.1C13.8,4.9,14.4,4.8,15.1,4.7z M20.4,3.5c0.5,0.1,0.8,0.3,1.1,0.5
				c0.4,0.3,0.6,0.6,0.6,1c0,0.2,0,0.3-0.1,0.4c-0.1,0.1-0.2,0.2-0.4,0.2c-0.2,0-0.4-0.1-0.5-0.4c-0.3-0.6-0.7-1-1-1.4
				c-0.1-0.1-0.2-0.2-0.2-0.2c0-0.1,0.1-0.1,0.2-0.1C20.1,3.4,20.3,3.4,20.4,3.5z M21.7,2.4c0.5,0.1,0.9,0.2,1.3,0.5
				c0.4,0.2,0.6,0.5,0.6,0.8c0,0.2-0.1,0.3-0.2,0.5c-0.1,0.1-0.2,0.1-0.3,0.1c-0.3,0-0.5-0.1-0.6-0.4c-0.3-0.5-0.7-0.9-1.1-1.3
				c-0.1-0.1-0.2-0.2-0.2-0.2c0-0.1,0-0.1,0.1-0.1C21.4,2.3,21.5,2.4,21.7,2.4z"/>
			<path d="M35.3,7.7c0.3,0,0.5-0.1,0.6-0.2c0.2-0.1,0.4-0.2,0.6-0.2c0.4,0,0.9,0.2,1.4,0.5c0.2,0.1,0.3,0.3,0.3,0.5
				c0,0.3-0.2,0.5-0.5,0.5c-0.2,0-0.5,0-0.8-0.1c-0.5-0.1-1-0.1-1.6-0.1h-1c-0.1,2-0.4,3.6-1.1,4.6c-1,1.5-2.5,2.6-4.6,3.1
				c-0.3,0.1-0.4,0.1-0.5,0.1s-0.2,0-0.2-0.1s0-0.1,0.1-0.1c1-0.4,1.8-0.9,2.6-1.5c0.7-0.6,1.2-1.3,1.6-2c0.5-1,0.8-2.3,0.9-4
				c-0.8,0-1.8,0.1-3,0.3c0,0.3,0,0.7,0,1.3s0,1,0,1.3s-0.1,0.6-0.3,0.8c-0.1,0.1-0.2,0.2-0.4,0.2c-0.5,0-0.7-0.3-0.7-0.8
				c0-0.2,0-0.6,0-1.2c0-0.6,0-1,0-1.4c-0.4,0.1-0.8,0.1-1.1,0.2c-0.3,0.1-0.6,0.2-0.7,0.3c-0.2,0.1-0.4,0.2-0.6,0.2
				c-0.3,0-0.7-0.2-1.1-0.6c-0.3-0.3-0.5-0.7-0.5-1c0-0.2,0-0.3,0.1-0.3c0,0,0.1,0,0.2,0.1c0.5,0.3,0.9,0.5,1.2,0.5
				c0.3,0,0.7,0,1.1-0.1c0.1,0,0.4,0,0.7-0.1c0.2,0,0.4-0.1,0.6-0.1c0-0.7,0-1.3,0-1.7c0-0.3-0.1-0.6-0.2-0.7
				c-0.2-0.2-0.5-0.3-0.9-0.4c-0.1,0-0.2-0.1-0.2-0.1c0-0.1,0.1-0.1,0.2-0.2C28,5,28.2,5,28.5,5c0.4,0,0.9,0.1,1.4,0.4
				c0.3,0.2,0.5,0.4,0.5,0.6c0,0.2,0,0.3-0.1,0.4c-0.1,0.1-0.1,0.3-0.1,0.6c0,0.4,0,0.7,0,1.1c1-0.1,2-0.2,3-0.3c0-0.8,0-1.4,0-1.8
				c0-0.7,0-1.2-0.1-1.3c-0.1-0.1-0.2-0.3-0.4-0.4c-0.1-0.1-0.3-0.1-0.5-0.2C32.1,4.1,32,4,32,4c0-0.1,0.1-0.2,0.2-0.3
				c0.2-0.1,0.3-0.2,0.6-0.2c0.4,0,0.8,0.1,1.3,0.2c0.5,0.2,0.8,0.4,0.8,0.8c0,0.1-0.1,0.3-0.2,0.5c-0.1,0.1-0.1,0.3-0.1,0.5
				c0,0.6,0,1.3-0.1,2.2C34.8,7.8,35.1,7.8,35.3,7.7z M36.1,4.2c0.4,0.1,0.8,0.3,1.1,0.5c0.4,0.3,0.6,0.6,0.6,1c0,0.2,0,0.3-0.1,0.4
				c-0.1,0.1-0.2,0.2-0.4,0.2s-0.4-0.1-0.5-0.4c-0.3-0.6-0.7-1-1-1.4c-0.1-0.1-0.2-0.2-0.2-0.2c0-0.1,0.1-0.1,0.2-0.1
				C35.8,4.1,36,4.2,36.1,4.2z M37.4,3.1c0.4,0.1,0.9,0.2,1.3,0.5c0.4,0.2,0.6,0.5,0.6,0.8c0,0.2-0.1,0.3-0.2,0.5
				C39,5,38.9,5,38.8,5c-0.3,0-0.5-0.1-0.6-0.4c-0.3-0.5-0.7-0.9-1.1-1.3c-0.1-0.1-0.2-0.2-0.2-0.2C36.9,3,36.9,3,37,3
				C37.1,3.1,37.3,3.1,37.4,3.1z"/>
			<path d="M46.2,8.6c-1.7,1.8-3.6,3.2-5.6,4.2c-0.2,0.1-0.3,0.2-0.4,0.2c-0.1,0-0.2-0.1-0.2-0.2c0-0.1,0.1-0.2,0.3-0.3
				c1.6-1.2,3.3-2.8,5.1-4.9c1-1.1,1.6-2,1.9-2.5c0.2-0.3,0.3-0.5,0.3-0.7s-0.2-0.3-0.5-0.5c-0.2-0.1-0.3-0.2-0.3-0.2
				c0-0.1,0.1-0.2,0.2-0.3c0.1-0.1,0.3-0.1,0.5-0.1s0.5,0.1,0.8,0.2s0.6,0.3,0.9,0.4c0.5,0.3,0.7,0.6,0.7,0.9c0,0.3-0.2,0.5-0.5,0.6
				c-0.1,0-0.2,0.1-0.3,0.2C47.7,7,47,7.8,46.8,8c0.7,0.5,1,0.9,1,1.1c0,0.1,0,0.2-0.1,0.3c0,0.1,0,0.3,0,0.5v2.3v3.6
				c0,0.2-0.1,0.4-0.2,0.6c-0.1,0.1-0.2,0.2-0.4,0.2c-0.3,0-0.6-0.1-0.7-0.3c-0.2-0.3-0.3-0.6-0.3-1c0-0.1,0-0.2,0.1-0.4
				c0.1-0.4,0.2-0.9,0.2-1.5V9.7C46.3,9.2,46.3,8.8,46.2,8.6z"/>
			<path d="M53.5,6c-0.1,0-0.1-0.1-0.1-0.2c0-0.1,0.1-0.1,0.2-0.1c0.1,0,0.2,0,0.3,0c0.8,0.1,1.4,0.3,2,0.6C56.6,6.7,57,7.2,57,7.9
				c0,0.3-0.1,0.5-0.3,0.7c-0.2,0.1-0.4,0.2-0.6,0.2c-0.4,0-0.6-0.2-0.8-0.6c-0.2-0.4-0.4-0.8-0.7-1.2C54.3,6.6,53.9,6.2,53.5,6z
				 M55,13.5c0.2,0,0.4-0.1,0.8-0.3c1.7-1,3.1-2,4.5-3.2s2.6-2.6,3.8-3.9C64.2,6,64.2,6,64.3,6s0.2,0,0.2,0.1s0,0.2-0.1,0.3
				c-1,1.7-2.1,3.2-3.3,4.5c-1.3,1.3-2.7,2.6-4.3,3.8c-0.2,0.1-0.3,0.2-0.4,0.4c-0.2,0.3-0.4,0.4-0.6,0.4c-0.3,0-0.6-0.2-1-0.6
				c-0.6-0.6-0.9-1.1-0.9-1.5s0.1-0.6,0.3-0.6c0,0,0.1,0.1,0.3,0.2C54.6,13.3,54.9,13.5,55,13.5z"/>
			<path d="M73.6,6.5L73.6,6.5c-2,0.5-3.6,1-4.7,1.4c-0.3,0.1-0.5,0.2-0.6,0.4c-0.1,0.1-0.3,0.2-0.5,0.2c-0.3,0-0.7-0.2-1.2-0.8
				C66.2,7.2,66,6.8,66,6.5S66.1,6,66.2,6s0.2,0.1,0.3,0.2c0.3,0.3,0.5,0.5,0.6,0.5c0.1,0.1,0.3,0.1,0.5,0.1h0.1
				c0.5,0,1.3-0.2,2.7-0.5C72,5.9,73.7,5.4,75.2,5c0.3-0.1,0.6-0.2,0.9-0.3c0.2-0.1,0.4-0.1,0.6-0.1c0.6,0,1.1,0.1,1.5,0.3
				c0.3,0.2,0.5,0.4,0.5,0.6c0,0.4-0.2,0.6-0.6,0.6c-0.1,0-0.3,0-0.6,0c-0.3,0-0.6,0-0.9,0.1c-1.5,0.1-2.7,0.7-3.7,1.7
				c-0.8,0.9-1.2,1.9-1.2,3.1c0,1.1,0.4,1.9,1.2,2.4c0.7,0.5,1.6,0.8,2.6,0.8c0.6,0,1,0.1,1.2,0.2c0.4,0.2,0.6,0.5,0.6,0.8
				c0,0.5-0.3,0.8-1,0.8c-1,0-2.1-0.3-3.1-0.8c-0.7-0.3-1.2-0.8-1.7-1.5c-0.5-0.7-0.7-1.4-0.7-2.2c0-1,0.2-1.9,0.6-2.7
				C71.8,8,72.5,7.3,73.6,6.5z M76.6,8.1c0.5,0.1,1,0.3,1.3,0.6c0.4,0.3,0.6,0.6,0.6,1c0,0.2,0,0.3-0.1,0.4
				c-0.1,0.1-0.2,0.2-0.4,0.2c-0.2,0-0.4-0.1-0.5-0.4c-0.3-0.6-0.6-1-1-1.4c-0.1-0.1-0.2-0.2-0.2-0.2s0-0.1,0.1-0.1h0.1L76.6,8.1z
				 M77.9,7.1c0.6,0.1,1.1,0.2,1.5,0.5S80,8.1,80,8.4c0,0.2-0.1,0.3-0.2,0.5C79.8,9,79.7,9,79.6,9c-0.3,0-0.5-0.1-0.6-0.4
				c-0.3-0.5-0.7-0.9-1.1-1.3c-0.1-0.1-0.2-0.2-0.2-0.2c0-0.1,0-0.1,0-0.1h0.1C77.8,7.1,77.9,7.1,77.9,7.1z"/>
			<path d="M89.3,7.3v3.8h2.4c0.6-0.8,1-1.2,1.1-1.2s0.5,0.3,1.1,0.8c0.3,0.3,0.5,0.5,0.5,0.6s-0.1,0.2-0.2,0.2h-4.8V16h3.5
				c0.7-0.8,1.1-1.2,1.2-1.2s0.5,0.3,1.2,0.8c0.3,0.3,0.5,0.5,0.5,0.6s-0.1,0.2-0.2,0.2H83.1c-0.4,0-0.9,0-1.5,0.1l-0.2-0.6
				C82,16,82.6,16,83.1,16h4.6v-4.5h-2.8c-0.4,0-0.8,0-1.4,0.1L83.3,11c0.5,0.1,1,0.1,1.4,0.1h2.9V7.3h-2.9
				c-0.8,1.5-1.9,2.7-3.1,3.5l0,0c-0.1,0-0.1,0-0.1-0.1l0,0c1-1.2,1.8-2.9,2.4-4.9c0.2-0.6,0.3-1.3,0.4-1.9c1.4,0.4,2.1,0.6,2.1,0.9
				c0,0.2-0.2,0.3-0.6,0.4c-0.2,0.7-0.5,1.3-0.7,1.8h2.7V5c0-0.9,0-1.7-0.1-2.3c1,0.1,1.6,0.2,1.9,0.3c0.2,0.1,0.3,0.2,0.3,0.3
				c0,0.2-0.2,0.3-0.6,0.4v3.2H92c0.6-0.8,1-1.2,1.1-1.2s0.5,0.3,1.1,0.8c0.3,0.3,0.5,0.5,0.5,0.6s-0.1,0.2-0.2,0.2H89.3z"/>
			<path d="M99.9,8.3c0,0.3-0.1,0.5-0.3,0.7c-0.1,0.1-0.3,0.2-0.5,0.2S98.7,9.1,98.6,9c-0.1-0.1-0.2-0.4-0.4-0.7
				c-0.2-0.5-0.6-1-1.1-1.4l0,0c0-0.1,0-0.1,0.1-0.1C99,6.8,99.9,7.3,99.9,8.3z M101.5,6.9l-1.8,5.6c-0.2,0.6-0.2,0.9-0.2,1.1
				c0,0.3,0.1,0.6,0.3,1.1c0.2,0.5,0.4,1,0.4,1.3c0,0.4-0.1,0.6-0.3,0.9c-0.2,0.2-0.4,0.3-0.7,0.3c-0.5,0-0.8-0.3-0.8-0.8
				c0-0.2,0-0.4,0.1-0.8c0-0.3,0.1-0.6,0.1-0.8c0-0.5-0.1-0.9-0.2-1.1s-0.5-0.3-1-0.5v-0.1c0-0.1,0-0.1,0.1-0.1
				c0.4,0.1,0.6,0.1,0.7,0.1c0.3,0,0.5-0.1,0.7-0.4c0.4-0.6,1.3-2.4,2.7-5.7c0,0,0,0,0.1,0C101.5,6.8,101.5,6.8,101.5,6.9L101.5,6.9
				z M101.1,4.7c0,0.3-0.1,0.5-0.3,0.7c-0.1,0.1-0.3,0.2-0.5,0.2s-0.4-0.1-0.5-0.2c-0.1-0.1-0.2-0.4-0.4-0.7c-0.3-0.5-0.6-1-1.1-1.5
				l0,0c0-0.1,0-0.1,0.1-0.1c0.9,0.1,1.6,0.3,2.1,0.6C100.8,3.9,101.1,4.2,101.1,4.7z M105.6,11.6V8.3h-2.8c-0.3,0-0.7,0-1.1,0.1
				l-0.2-0.6c0.5,0.1,0.9,0.1,1.3,0.1h2.8V5c-1.3,0.2-2.5,0.3-3.7,0.3c0,0-0.1,0-0.1-0.1s0-0.1,0.1-0.1c1.8-0.3,3.7-0.8,5.6-1.6
				c0.8-0.4,1.4-0.7,1.8-1c0.9,0.7,1.4,1.2,1.4,1.3c0,0.1-0.1,0.2-0.4,0.2c-0.1,0-0.2,0-0.4,0c-0.9,0.3-1.8,0.6-2.8,0.8V8h2.2
				c0.6-0.7,1-1.1,1.1-1.1s0.5,0.3,1.1,0.8c0.3,0.3,0.5,0.4,0.5,0.5s-0.1,0.2-0.2,0.2h-4.7v3.3h1.8c0.4-0.5,0.7-0.8,0.8-0.8
				c0.1,0,0.4,0.2,0.9,0.6c0.2,0.2,0.4,0.4,0.4,0.5s-0.2,0.3-0.5,0.5v0.7l0.1,3.4c0,0.4-0.3,0.6-0.9,0.6c-0.4,0-0.6-0.2-0.6-0.5
				v-0.5h-5.2v0.5c0,0.4-0.3,0.6-0.9,0.6c-0.4,0-0.6-0.2-0.6-0.5l0.1-3.3c0-1.1,0-2-0.1-2.7c0.6,0.2,1.1,0.5,1.7,0.8H105.6z
				 M109,15.7V12h-5.2v3.8L109,15.7L109,15.7z"/>
			<path d="M122.6,7.3c0-0.2,0.2-0.2,0.6-0.2c0.3,0,0.8,0.1,1.3,0.4c0.6,0.3,0.9,0.7,0.9,1.1c0,0.3-0.2,0.5-0.6,0.5
				c-0.2,0-0.5,0.1-0.9,0.2c-0.8,0.3-1.6,0.6-2.4,1c-0.9,0.5-1.4,0.7-1.5,0.8c0,0.3,0,0.7,0,1.2v0.9c0,0.3,0,0.4-0.1,0.5
				c-0.1,0.3-0.3,0.4-0.6,0.4c-0.5,0-0.7-0.3-0.7-0.8c0-0.1,0-0.3,0-0.6c0-0.3,0-0.6,0-0.9c-0.2,0.1-0.5,0.3-0.8,0.5
				c-0.5,0.3-0.8,0.6-1,0.9s-0.3,0.6-0.3,0.9c0,0.8,0.7,1.1,2.2,1.1c1,0,1.7,0,2.2-0.1c0.3,0,0.6-0.1,0.9-0.3
				c0.2-0.1,0.4-0.1,0.7-0.1c0.4,0,0.7,0.1,0.9,0.3c0.2,0.2,0.3,0.4,0.3,0.6s-0.1,0.4-0.3,0.5c-0.4,0.3-1.4,0.4-3.1,0.4
				c-1,0-1.8,0-2.3-0.1c-0.4-0.1-0.8-0.2-1.2-0.4c-0.7-0.3-1.1-0.9-1.1-1.8c0-0.7,0.4-1.4,1.1-2.1c0.4-0.4,1-0.8,1.8-1.3
				c0-0.2,0-0.4,0-0.8c0-0.9-0.3-1.4-0.8-1.4c-0.6,0-1.2,0.4-1.8,1.1c-0.1,0.1-0.4,0.6-1.1,1.6c-0.2,0.3-0.5,0.5-0.7,0.5
				s-0.4-0.1-0.5-0.2c-0.1-0.1-0.2-0.3-0.2-0.5c0-0.3,0.1-0.5,0.3-0.7c0.2-0.2,0.4-0.4,0.6-0.5c0.8-0.8,1.6-1.9,2.3-3.2
				c-0.5,0-0.9,0.1-1.2,0.1c-0.1,0-0.1,0-0.2,0c-0.4,0-0.8-0.1-1.1-0.4c-0.3-0.2-0.5-0.5-0.7-0.9c-0.1-0.1-0.1-0.3-0.1-0.4
				c0-0.1,0-0.1,0.1-0.1s0.1,0,0.2,0.1c0.3,0.4,0.8,0.7,1.6,0.7c0.5,0,1.1-0.1,1.9-0.3c0.2-0.4,0.4-0.8,0.5-1.3
				c0.1-0.2,0.1-0.4,0.1-0.4c0-0.1,0-0.2-0.1-0.3c-0.1-0.1-0.2-0.1-0.4-0.2c-0.1-0.1-0.2-0.1-0.3-0.1c-0.1,0-0.1,0-0.1-0.1
				c0,0,0-0.1,0.1-0.2s0.3-0.2,0.6-0.2c0.6,0,1.1,0.1,1.6,0.4c0.3,0.1,0.4,0.3,0.4,0.6c0,0.2-0.1,0.3-0.2,0.4
				c-0.2,0.1-0.3,0.3-0.4,0.5c-0.2,0.2-0.3,0.5-0.5,0.7c0.5-0.1,0.9-0.3,1.3-0.6c0.2-0.1,0.3-0.2,0.6-0.2c0.3,0,0.6,0.1,0.8,0.2
				c0.2,0.1,0.3,0.2,0.3,0.4c0,0.3-0.1,0.5-0.4,0.6c-0.9,0.3-1.9,0.6-3.1,0.8c-0.3,0.5-0.5,0.8-0.6,0.9c-0.3,0.4-0.5,0.9-0.8,1.3
				c0.7-0.4,1.3-0.7,1.8-0.7c0.6,0,1.1,0.2,1.4,0.6c0.2,0.3,0.3,0.7,0.3,1.4c1.4-0.9,2.3-1.4,2.7-1.7c0.4-0.3,0.6-0.4,0.6-0.5
				s-0.1-0.2-0.2-0.3s-0.3-0.2-0.5-0.2C122.6,7.4,122.6,7.4,122.6,7.3z"/>
			<path d="M132.3,16.4c-0.2,0-0.4-0.3-0.4-0.8c-0.1-0.6-0.3-1.1-0.5-1.4c0,0,0,0,0-0.1c0,0,0-0.1,0.1-0.1l0,0
				c1.2,0.4,1.9,0.9,1.9,1.5c0,0.4-0.2,0.7-0.7,0.8h2.5c0.2-0.5,0.3-0.9,0.5-1.3c0.1-0.3,0.1-0.6,0.2-1c0.7,0.2,1.2,0.4,1.5,0.5
				c0.2,0.1,0.3,0.2,0.3,0.3c0,0.2-0.2,0.3-0.6,0.3c-0.5,0.5-0.9,0.9-1.3,1.2h3.1c0.7-0.8,1-1.1,1.2-1.1c0.1,0,0.5,0.3,1.2,0.8
				c0.3,0.3,0.5,0.5,0.5,0.6s-0.1,0.2-0.2,0.2h-12.8c-0.4,0-0.9,0-1.5,0.1l-0.2-0.6c0.6,0.1,1.2,0.1,1.7,0.1H132.3z M141.5,10.2
				c0,0.1-0.1,0.2-0.2,0.2h-12.7c-0.3,0-0.7,0-1.2,0.1l-0.2-0.6c0.5,0.1,0.9,0.1,1.3,0.1h10.4c0.5-0.7,0.9-1,1-1s0.4,0.2,1,0.7
				C141.3,9.9,141.5,10.1,141.5,10.2z M131.9,4.2V4c0-0.7,0-1.2-0.1-1.5c1.2,0.1,1.8,0.3,1.8,0.5c0,0.1-0.1,0.3-0.4,0.4v0.8h1.9V4
				c0-0.5,0-1.1-0.1-1.5c1.2,0.1,1.8,0.3,1.8,0.5c0,0.1-0.1,0.3-0.4,0.4v0.8h1.8c0.4-0.5,0.7-0.7,0.8-0.7s0.4,0.2,0.9,0.6
				c0.2,0.2,0.4,0.4,0.4,0.5s-0.1,0.3-0.4,0.5v0.6l0.1,3c0,0.4-0.3,0.6-0.9,0.6c-0.4,0-0.6-0.1-0.6-0.4H130c0,0.4-0.3,0.6-0.8,0.6
				c-0.4,0-0.6-0.2-0.6-0.5V6.1c0-1,0-1.8-0.1-2.5c0.6,0.3,1.1,0.5,1.6,0.8h1.8V4.2z M137.7,14h-6.8l0,0c0,0.2-0.1,0.4-0.2,0.5
				c-0.1,0.1-0.4,0.1-0.7,0.1s-0.4,0-0.5-0.1s-0.1-0.2-0.1-0.4v-1.9c0-0.5,0-0.9,0-1.4c0.6,0.2,1.1,0.5,1.7,0.8h6.5
				c0.4-0.4,0.7-0.6,0.8-0.6s0.4,0.2,0.8,0.5c0.2,0.2,0.3,0.4,0.3,0.5s-0.1,0.2-0.4,0.4v0.3V14c0,0.2-0.1,0.4-0.2,0.5
				c-0.1,0.1-0.4,0.1-0.7,0.1C137.8,14.5,137.7,14.3,137.7,14L137.7,14z M131.9,4.6H130v1.6h1.8L131.9,4.6L131.9,4.6z M131.9,8.4
				V6.6H130v1.8C130,8.4,131.9,8.4,131.9,8.4z M137.7,13.6v-1.7h-6.8v1.7H137.7z M135.1,4.6h-1.9v1.6h1.9V4.6z M133.2,8.4h1.9V6.6
				h-1.9V8.4z M136.4,4.6v1.6h2V4.6H136.4z M136.4,8.4h2V6.6h-2V8.4z"/>
			<path d="M149.1,7.1c0.2,0,0.5,0,0.8,0c0.6,0,1,0.3,1.4,0.9c0.3,0.5,0.5,1.2,0.5,1.9c0,1.3-0.2,2.5-0.6,3.6
				c-0.3,0.8-0.6,1.3-1,1.7c-0.6,0.6-1.1,1-1.6,1s-0.8-0.2-0.8-0.7c0-0.2-0.1-0.5-0.3-0.9c-0.2-0.3-0.4-0.5-0.7-0.9
				c-0.1-0.1-0.1-0.2-0.1-0.2c0-0.1,0-0.1,0.1-0.1s0.1,0,0.2,0.1c0.4,0.3,0.8,0.5,1.1,0.6s0.5,0.2,0.6,0.2c0.3,0,0.5-0.1,0.6-0.3
				c0.3-0.4,0.6-1,0.8-1.8c0.3-0.8,0.4-1.7,0.4-2.6c0-0.8-0.1-1.3-0.2-1.6c-0.1-0.2-0.4-0.4-0.7-0.4c-0.2,0-0.5,0-0.8,0.1
				c-0.2,0.4-0.4,0.9-0.8,1.6c-0.7,1.5-1.2,2.6-1.5,3.2c-0.6,1.2-1.1,2.2-1.6,3c-0.1,0.2-0.4,0.4-0.7,0.4c-0.2,0-0.3-0.1-0.4-0.2
				c-0.1-0.1-0.2-0.3-0.2-0.4c0-0.3,0.1-0.6,0.3-0.9c1.4-2.2,2.6-4.2,3.5-6.2c-0.7,0.3-1.3,0.5-1.8,0.7c-0.3,0.1-0.4,0.2-0.5,0.2
				c-0.1,0.1-0.2,0.1-0.4,0.1c-0.3,0-0.6-0.1-0.9-0.4c-0.2-0.2-0.3-0.3-0.4-0.6c-0.1-0.2-0.2-0.4-0.2-0.5c0-0.4,0.1-0.6,0.2-0.6
				c0.1,0,0.1,0.1,0.2,0.2c0.3,0.4,0.6,0.6,0.8,0.6c0.3,0,0.8-0.1,1.4-0.2c0,0,0.7-0.2,1.9-0.4c0.5-1.3,0.8-2.1,0.8-2.6
				c0-0.2-0.1-0.4-0.2-0.5c-0.1-0.1-0.3-0.2-0.6-0.3c-0.2-0.1-0.2-0.1-0.2-0.2s0.1-0.2,0.3-0.3c0.3-0.1,0.5-0.1,0.8-0.1
				s0.6,0.1,0.9,0.3c0.3,0.2,0.6,0.4,0.8,0.6c0.1,0.1,0.1,0.3,0.1,0.4c0,0.2-0.1,0.4-0.4,0.5c-0.1,0.1-0.2,0.2-0.3,0.5
				c-0.1,0.1-0.1,0.3-0.3,0.6C149.3,6.7,149.2,6.9,149.1,7.1z M155.1,11.6c-0.4,0-0.8,0-1.2,0c-0.2,0-0.4,0-0.5,0s-0.2,0-0.2-0.1
				s0-0.1,0.1-0.1c1.3-0.5,2-0.9,2-1.1c0-0.4-0.2-0.8-0.5-1.3c-0.3-0.4-0.6-0.8-0.9-1c-0.3-0.2-0.6-0.4-1-0.6
				c-0.2-0.1-0.3-0.2-0.3-0.2c0-0.1,0.1-0.2,0.2-0.2h0.1c1,0.1,1.8,0.6,2.6,1.3c0.5,0.5,0.9,1,1.1,1.5c0.2,0.4,0.3,0.9,0.3,1.5
				c0,0.3-0.1,0.5-0.3,0.7c-0.1,0.1-0.3,0.2-0.4,0.2h-0.1c-0.2,0-0.4-0.1-0.6-0.3C155.4,11.7,155.2,11.6,155.1,11.6z"/>
			<path d="M162.9,10.3c-0.6,1.9-1,3-1,3.2c-0.1,0.3-0.1,0.6-0.1,0.9c0,0,0,0.2,0,0.5c0,0.2,0,0.3,0,0.4c0,0.5-0.1,0.7-0.4,0.7
				c-0.2,0-0.4-0.1-0.6-0.2c-0.1-0.1-0.3-0.4-0.5-0.8c-0.4-0.7-0.5-1.7-0.5-3c0-1.1,0.2-2.6,0.7-4.5c0.2-0.9,0.3-1.5,0.3-1.6
				c0-0.4-0.1-0.9-0.4-1.3c0-0.1-0.1-0.1-0.1-0.2s0.1-0.1,0.2-0.1c0.2,0,0.5,0.1,0.8,0.4c0.3,0.2,0.5,0.6,0.7,1
				c0.2,0.3,0.3,0.6,0.3,0.9c0,0.2-0.1,0.4-0.2,0.6c-0.1,0.1-0.3,0.4-0.5,0.9c-0.5,1.3-0.8,2.4-0.8,3.4c0,0.9,0.1,1.4,0.2,1.6
				c0,0,0,0,0.1,0c0,0,0,0,0.1,0c0.1-0.3,0.6-1.3,1.4-3c0.1-0.1,0.1-0.2,0.2-0.2c0.1,0,0.1,0.1,0.1,0.2
				C162.9,10.1,162.9,10.2,162.9,10.3z M164.6,10.4v0.1c0,0.1,0,0.2,0,0.2c-0.1,0.3-0.1,0.6-0.1,0.8c0,0.4,0.1,0.7,0.2,1
				c0.3,0.8,1.3,1.2,2.7,1.2c1,0,1.7,0,2.1-0.1c0.3-0.1,0.5-0.2,0.7-0.2c0.3,0,0.6,0.1,0.9,0.3c0.3,0.1,0.4,0.3,0.4,0.6
				c0,0.3-0.2,0.5-0.5,0.6c-0.5,0.2-1.4,0.3-2.7,0.3c-1.5,0-2.6-0.3-3.3-0.9c-0.7-0.5-1-1.3-1-2.2c0-0.7,0.1-1.3,0.4-1.8
				c0.1-0.1,0.1-0.2,0.2-0.2C164.6,10.2,164.6,10.3,164.6,10.4z M166.9,6.9c-0.8,0-1.4,0.1-2,0.4c-0.2,0.1-0.3,0.1-0.3,0.1
				c-0.1,0-0.1,0-0.1-0.1s0.1-0.1,0.2-0.2c0.7-0.5,1.3-0.8,2-1.1c0.7-0.2,1.4-0.3,2.1-0.3c0.7,0,1.2,0.1,1.6,0.3
				c0.2,0.2,0.4,0.4,0.4,0.6c0,0.2-0.1,0.4-0.3,0.5c-0.1,0.1-0.4,0.1-0.7,0.1H169c-0.4,0-0.7,0-0.9,0.1c-0.5,0.1-1.1,0.5-1.9,1.1
				c-0.1,0.1-0.1,0.1-0.2,0.1c-0.1,0-0.1,0-0.1-0.1s0-0.1,0.1-0.2c0.1-0.1,0.3-0.3,0.5-0.6C166.5,7.3,166.7,7.1,166.9,6.9z"/>
		</g>
	</g>
</g>
</svg>
