<?xml version="1.0" encoding="utf-8"?>
<!-- Generator: Adobe Illustrator 24.2.0, SVG Export Plug-In . SVG Version: 6.00 Build 0)  -->
<svg version="1.1" id="レイヤー_1" xmlns="http://www.w3.org/2000/svg" xmlns:xlink="http://www.w3.org/1999/xlink" x="0px"
	 y="0px" viewBox="0 0 108.4 108.4" style="enable-background:new 0 0 108.4 108.4;" xml:space="preserve">
<style type="text/css">
	.st0{fill:none;stroke:#FFFFFF;stroke-width:2;stroke-miterlimit:10;}
	.st1{fill:none;stroke:#FFFFFF;stroke-width:4;stroke-miterlimit:10;}
</style>
<circle class="st0" cx="53.8" cy="54.2" r="52.7"/>
<g>
	<path class="st1" d="M2.8,47.8c0,0,55.1-49.5,102,2.3c0.2,2.7,0.2,5.1,0.1,7.5c0,0-29.6-17.2-63.2,4.3c0,0-14.1-12.6-39.2-5.7
		C2.4,56,2.2,51.7,2.8,47.8z"/>
	<path class="st1" d="M2.8,47.8c0,0,22.7-6.5,38.8,3.8c0,0,29-18.1,63.2-1.5"/>
	<path class="st1" d="M41.6,51.6c0,0-2.3,5.6,0.1,10.2"/>
	<path class="st1" d="M10.4,54.5c-6,40,73.5,32.6,82.1-1.6"/>
	<path class="st1" d="M1.1,57.4"/>
</g>
<path class="st1" d="M-11,37.7"/>
</svg>
